<?xml version="1.0" encoding="UTF-8"?>
<svg id="Layer_1" data-name="Layer 1" xmlns="http://www.w3.org/2000/svg" viewBox="0 0 257 257">
  <defs>
    <style>
      .cls-1 {
        fill: #fff;
      }
    </style>
  </defs>
  <path class="cls-1" d="m1.24.56c7.02-4.72,35.52,21.37,52.82,47.35,16.96,25.46,22.3,49.52,23.56,55.66,5.15,25.09-.71,29.37,4.63,70.96,2.5,19.44,4.03,29.36,9.26,42.35,10.25,25.48,24.95,35.11,21.99,38.91-3.55,4.56-29.5-3.94-47.45-22.89-15.83-16.71-20.56-36.4-24.34-53.04-5.46-24.01-4.43-41.05-4.59-53.4C36.19,53.6-7.88,6.7,1.24.56Z"/>
  <path class="cls-1" d="m81.17,39.94c6.34-4,32.09,18.09,47.72,40.08,15.32,21.55,20.15,41.91,21.29,47.11,4.65,21.24-.64,24.86,4.18,60.06,2.26,16.46,3.64,24.85,8.36,35.84,9.26,21.56,22.54,29.72,19.87,32.94-3.21,3.86-26.65-3.33-42.87-19.38-14.3-14.15-18.57-30.81-21.99-44.89-4.94-20.32-4-34.75-4.15-45.2-.84-61.67-40.66-101.36-32.41-106.56Z"/>
  <path class="cls-1" d="m156.38,82.2c6.27-3.22,31.73,14.57,47.18,32.28,15.15,17.35,19.92,33.75,21.05,37.94,4.6,17.1-.64,20.02,4.14,48.37,2.23,13.25,3.6,20.01,8.27,28.87,9.16,17.37,22.28,23.93,19.64,26.53-3.17,3.11-26.35-2.68-42.39-15.6-14.14-11.39-18.36-24.81-21.74-36.15-4.88-16.37-3.96-27.98-4.1-36.4-.83-49.66-40.2-81.63-32.05-85.82Z"/>
</svg>