<?xml version="1.0" encoding="utf-8"?>
<!-- Generator: Adobe Illustrator 27.5.0, SVG Export Plug-In . SVG Version: 6.00 Build 0)  -->
<svg version="1.1" xmlns="http://www.w3.org/2000/svg" xmlns:xlink="http://www.w3.org/1999/xlink" x="0px" y="0px"
	 viewBox="0 0 500 500" style="enable-background:new 0 0 500 500;" xml:space="preserve">
<g id="Objects">
	<g>
		<path style="fill:none;stroke:#fff;stroke-width:6;stroke-linejoin:round;stroke-miterlimit:10;" d="M250,269.132
			c-5.804,0-11.339-1.137-16.409-3.184v19.647h32.817v-19.647C261.338,267.995,255.803,269.132,250,269.132z"/>
		<path style="fill:none;stroke:#fff;stroke-width:6;stroke-linejoin:round;stroke-miterlimit:10;" d="M265.955,285.595h-31.91
			c-24.8,0-44.904,20.104-44.904,44.904v42.427c17.258,12.029,38.227,19.103,60.859,19.103s43.6-7.074,60.859-19.103v-42.427
			C310.859,305.699,290.755,285.595,265.955,285.595z"/>
		<path style="fill:none;stroke:#fff;stroke-width:6;stroke-linejoin:round;stroke-miterlimit:10;" d="M206.13,233.074h-6.498
			c-5.794,0-10.49-4.697-10.49-10.49v-12.216c0-5.794,4.697-10.49,10.49-10.49h6.498V233.074z"/>
		<path style="fill:none;stroke:#fff;stroke-width:6;stroke-linejoin:round;stroke-miterlimit:10;" d="M293.87,233.074h6.498
			c5.794,0,10.49-4.697,10.49-10.49v-12.216c0-5.794-4.697-10.49-10.49-10.49h-6.498V233.074z"/>
		<path style="fill:none;stroke:#fff;stroke-width:6;stroke-linejoin:round;stroke-miterlimit:10;" d="M300.981,232.163
			c0,0,2.671,27.445-43.582,26.209"/>
		<circle style="fill:#212121;" cx="254.365" cy="258.22" r="6.108"/>
		<path style="fill:none;stroke:#fff;stroke-width:4;stroke-linecap:round;stroke-linejoin:round;stroke-miterlimit:10;" d="
			M258.119,212.249c0,0,0-12.829,9.098-12.941c9.098-0.112,8.9,12.941,8.9,12.941"/>
		<path style="fill:none;stroke:#fff;stroke-width:4;stroke-linecap:round;stroke-linejoin:round;stroke-miterlimit:10;" d="
			M224.067,212.249c0,0,0-12.829,9.098-12.941c9.098-0.112,8.9,12.941,8.9,12.941"/>
		<path style="fill:none;stroke:#fff;stroke-width:4;stroke-linecap:round;stroke-linejoin:round;stroke-miterlimit:10;" d="
			M235.037,230.529h29.926c0,0,2.42,18.945-14.963,18.945S235.037,230.529,235.037,230.529z"/>
		<path style="fill:none;stroke:#fff;stroke-width:4;stroke-linecap:round;stroke-linejoin:round;stroke-miterlimit:10;" d="
			M245.351,223.454c0,0,5.333,2.735,10.529,0"/>
		<path style="fill:none;stroke:#fff;stroke-width:6;stroke-linejoin:round;stroke-miterlimit:10;" d="M200.617,199.878
			c0,0-16.753-33.519,5.513-45.279c0,0-5.903-18.049,23.359-22.972c29.262-4.923,48.2,2.188,63.344,12.307
			c9.496,6.345,11.742,19.035,11.525,30.315c-0.156,8.115-1.699,16.143-4.348,23.815l-0.627,1.815h-5.513l-1.037-16.076
			c0,0-16.853-15.529-36.953-5.684s-30.365,13.378-49.709,13.389l-0.041,8.371H200.617z"/>
		<path style="fill:none;stroke:#fff;stroke-width:6;stroke-linejoin:round;stroke-miterlimit:10;" d="M255.88,178.118
			c-20.099,9.844-30.364,13.377-49.705,13.389c-0.002,0.06-0.002,0.12-0.005,0.18l-0.04,8.191v25.384
			c0,24.228,19.641,43.87,43.87,43.87c24.228,0,43.87-19.642,43.87-43.87v-25.384l-1.037-16.076
			C292.833,183.802,275.98,168.273,255.88,178.118z"/>
		<path style="fill:none;stroke:#fff;stroke-width:8;stroke-linejoin:round;stroke-miterlimit:10;" d="M197.635,200.283
			c0,0-3.288-51.609,52.98-51.609s51.755,51.609,51.755,51.609"/>
		<g>
			<path style="fill:none;stroke:#fff;stroke-width:6;stroke-linejoin:round;stroke-miterlimit:10;" d="M219.346,288.199
				l19.37,16.539l11.139-19.143h-15.426C229.136,285.595,224.061,286.517,219.346,288.199z"/>
			<path style="fill:none;stroke:#fff;stroke-width:6;stroke-linejoin:round;stroke-miterlimit:10;" d="M280.608,288.04
				l-19.614,16.698l-11.14-19.143h15.426C270.574,285.595,275.893,286.358,280.608,288.04z"/>
		</g>
		<polygon style="fill:none;stroke:#fff;stroke-width:6;stroke-linejoin:round;stroke-miterlimit:10;" points="240.798,301.159
			249.855,311.028 258.912,301.159 249.855,285.595 		"/>
		<path style="fill:none;stroke:#fff;stroke-width:6;stroke-linejoin:round;stroke-miterlimit:10;" d="M250,392.029
			c5.254,0,10.414-0.397,15.464-1.133l-11.104-84.775l-4.504,4.908l-4.504-4.908l-11.099,84.736
			C239.391,391.62,244.647,392.029,250,392.029z"/>
		<path style="fill:none;stroke:#fff;stroke-width:6;stroke-linejoin:round;stroke-miterlimit:10;" d="M123.167,292.551v-13.913
			h-6.286c-0.56-2.001-1.353-3.904-2.352-5.677l4.445-4.445l-9.838-9.838l-4.445,4.445c-1.773-0.999-3.676-1.792-5.677-2.352v-6.286
			H85.101v6.286c-2.001,0.56-3.904,1.353-5.677,2.352l-4.445-4.445l-9.838,9.838l4.445,4.445c-0.999,1.773-1.792,3.675-2.352,5.677
			h-6.286v13.913h6.286c0.56,2.001,1.353,3.904,2.352,5.677l-4.445,4.445l9.838,9.838l4.445-4.445
			c1.773,0.999,3.675,1.792,5.677,2.352v6.286h13.913v-6.286c2.001-0.56,3.904-1.353,5.677-2.352l4.445,4.445l9.838-9.838
			l-4.445-4.445c0.999-1.773,1.793-3.675,2.352-5.677H123.167z M92.058,301.731c-8.912,0-16.136-7.224-16.136-16.136
			s7.225-16.136,16.136-16.136s16.136,7.225,16.136,16.136S100.97,301.731,92.058,301.731z"/>
		<g>
			
				<rect x="106.401" y="118.534" transform="matrix(0.9253 -0.3793 0.3793 0.9253 -49.5308 60.3921)" style="fill:none;stroke:#fff;stroke-width:6;stroke-linejoin:round;stroke-miterlimit:10;" width="44.189" height="74.72"/>
			
				<rect x="111.897" y="129.881" transform="matrix(0.9253 -0.3793 0.3793 0.9253 -48.6585 59.8163)" style="fill:none;stroke:#fff;stroke-width:4;stroke-linejoin:round;stroke-miterlimit:10;" width="31.144" height="47.022"/>
			<path style="fill:#fff;" d="M142.649,180.971c0.751,1.831-0.125,3.924-1.956,4.675c-1.831,0.751-3.924-0.125-4.675-1.956
				c-0.751-1.831,0.125-3.924,1.956-4.675C139.805,178.264,141.898,179.14,142.649,180.971z"/>
			
				<line style="fill:none;stroke:#fff;stroke-width:3;stroke-linecap:round;stroke-linejoin:round;stroke-miterlimit:10;" x1="112.442" y1="128.514" x2="120.71" y2="125.125"/>
		</g>
		<g>
			<polygon style="fill:none;stroke:#fff;stroke-width:6;stroke-linejoin:round;stroke-miterlimit:10;" points="406.798,159.794
				356.497,193.014 334.952,160.392 370.074,158.88 385.253,127.172 			"/>
			<polygon style="fill:none;stroke:#fff;stroke-width:6;stroke-linejoin:round;stroke-miterlimit:10;" points="334.952,160.392
				385.253,127.172 370.074,158.88 			"/>
		</g>
		<g>
			<path style="fill:none;stroke:#fff;stroke-width:6;stroke-linejoin:round;stroke-miterlimit:10;" d="M381.531,294.421
				L381.531,294.421c-2.907-4.052-1.979-9.693,2.073-12.6l4.807-3.448l10.527,14.673l-4.807,3.449
				C390.079,299.401,384.438,298.473,381.531,294.421z"/>
			<path style="fill:none;stroke:#fff;stroke-width:6;stroke-linejoin:round;stroke-miterlimit:10;" d="M417.568,289.848
				c4.299,0.001,8.638-1.275,12.397-3.973c9.554-6.854,11.742-20.156,4.888-29.709c-6.854-9.554-20.156-11.742-29.71-4.888
				c-3.759,2.697-6.359,6.398-7.735,10.471c0,0-0.474,1.572-0.627,2.274c-1.108,3.731-3.769,11.048-8.37,14.349l5.264,7.336
				l5.264,7.337c4.601-3.301,12.385-3.478,16.274-3.332C415.926,289.793,417.568,289.848,417.568,289.848z"/>
			
				<rect x="398.349" y="267.173" transform="matrix(0.5829 0.8125 -0.8125 0.5829 394.7566 -211.2859)" style="fill:none;stroke:#fff;stroke-width:3;stroke-linejoin:round;stroke-miterlimit:10;" width="9.679" height="23.419"/>
			
				<line style="fill:none;stroke:#fff;stroke-width:3;stroke-linejoin:round;stroke-miterlimit:10;" x1="407.439" y1="264.72" x2="417.966" y2="279.394"/>
		</g>
		<g>
			<path style="fill:#fff;" d="M176.022,122.061c0.511,0,1.029-0.119,1.513-0.372c3.152-1.643,6.401-3.197,9.658-4.62
				c1.659-0.725,2.417-2.658,1.692-4.318c-0.725-1.659-2.657-2.418-4.318-1.692c-3.394,1.483-6.779,3.102-10.063,4.814
				c-1.606,0.837-2.229,2.817-1.392,4.423C173.696,121.419,174.839,122.061,176.022,122.061z"/>
			<path style="fill:#fff;" d="M196.038,113.315c0.366,0,0.739-0.062,1.104-0.192c3.347-1.197,6.783-2.293,10.21-3.258
				c1.743-0.491,2.758-2.302,2.267-4.045c-0.49-1.743-2.3-2.757-4.045-2.267c-3.572,1.006-7.151,2.149-10.639,3.395
				c-1.705,0.609-2.594,2.486-1.984,4.191C193.429,112.479,194.692,113.315,196.038,113.315z"/>
			<path style="fill:#fff;" d="M217.089,107.386c0.222,0,0.447-0.022,0.673-0.07c3.477-0.725,7.03-1.341,10.56-1.828
				c1.794-0.248,3.047-1.903,2.8-3.696c-0.248-1.795-1.907-3.056-3.696-2.8c-3.678,0.508-7.38,1.148-11.003,1.905
				c-1.773,0.37-2.91,2.106-2.54,3.879C214.205,106.324,215.569,107.386,217.089,107.386z"/>
			<path style="fill:#fff;" d="M157.371,133.461c0.656,0,1.319-0.196,1.895-0.605c2.899-2.056,5.909-4.04,8.945-5.897
				c1.545-0.945,2.032-2.963,1.087-4.508c-0.945-1.545-2.962-2.031-4.508-1.087c-3.163,1.934-6.298,4.001-9.319,6.144
				c-1.477,1.048-1.825,3.094-0.777,4.572C155.333,132.98,156.345,133.461,157.371,133.461z"/>
			<path style="fill:#fff;" d="M93.632,225.412c-1.777-0.368-3.507,0.779-3.871,2.553c-0.745,3.63-1.374,7.334-1.869,11.009
				c-0.242,1.794,1.017,3.445,2.812,3.687c0.148,0.02,0.296,0.03,0.442,0.03c1.616,0,3.023-1.195,3.245-2.842
				c0.475-3.527,1.079-7.082,1.794-10.566C96.55,227.509,95.406,225.776,93.632,225.412z"/>
			<path style="fill:#fff;" d="M94.663,221.145c0.294,0.082,0.589,0.121,0.88,0.121c1.436,0,2.754-0.951,3.157-2.402
				c0.954-3.432,2.04-6.87,3.225-10.22c0.604-1.707-0.29-3.581-1.997-4.185c-1.708-0.605-3.581,0.29-4.185,1.997
				c-1.235,3.491-2.366,7.075-3.361,10.651C91.897,218.852,92.919,220.66,94.663,221.145z"/>
			<path style="fill:#fff;" d="M111.201,180.71c0.532,0.323,1.119,0.477,1.699,0.477c0.658,0,1.294-0.22,1.841-0.594
				l-2.918-7.117c-0.577,0.909-1.167,1.814-1.723,2.729C109.161,177.753,109.654,179.77,111.201,180.71z"/>
			<path style="fill:#fff;" d="M90.267,247.026c-1.811-0.114-3.369,1.249-3.488,3.056c-0.096,1.458-0.159,2.93-0.217,4.404h6.565
				c0.054-1.327,0.109-2.656,0.196-3.971C93.441,248.707,92.074,247.145,90.267,247.026z"/>
			<path style="fill:#fff;" d="M238.753,104.393c0.076,0,0.153-0.003,0.23-0.008c3.543-0.245,7.149-0.373,10.717-0.381
				c1.811-0.004,3.276-1.474,3.273-3.285c-0.003-1.809-1.471-3.273-3.279-3.273c-0.002,0-0.004,0-0.007,0
				c-3.714,0.007-7.468,0.141-11.156,0.397c-1.807,0.125-3.17,1.691-3.045,3.497C235.605,103.07,237.045,104.393,238.753,104.393z"
				/>
			<path style="fill:#fff;" d="M101.538,200.362c0.425,0.184,0.867,0.271,1.302,0.271c1.267,0,2.474-0.74,3.01-1.976
				c1.416-3.269,2.964-6.53,4.601-9.693c0.832-1.608,0.204-3.587-1.405-4.419c-1.609-0.833-3.586-0.204-4.419,1.405
				c-1.706,3.296-3.318,6.693-4.795,10.099C99.113,197.711,99.877,199.642,101.538,200.362z"/>
			<path style="fill:#fff;" d="M393.921,198.131c1.425,3.259,2.755,6.605,3.953,9.947c0.48,1.339,1.741,2.174,3.087,2.174
				c0.367,0,0.741-0.062,1.106-0.193c1.705-0.611,2.592-2.488,1.981-4.193c-1.248-3.482-2.633-6.969-4.119-10.364
				c-0.725-1.659-2.66-2.414-4.318-1.689C393.951,194.538,393.196,196.472,393.921,198.131z"/>
			<path style="fill:#fff;" d="M362.438,142.239c-0.341-0.323-0.673-0.659-1.016-0.978c-1.326-1.233-3.402-1.159-4.634,0.167
				c-1.194,1.283-1.151,3.261,0.055,4.506L362.438,142.239z"/>
			<path style="fill:#fff;" d="M389.295,188.476c0.585,1.121,1.727,1.762,2.91,1.762c0.511,0,1.03-0.12,1.515-0.373
				c1.605-0.838,2.227-2.819,1.389-4.424c-1.714-3.283-3.564-6.55-5.498-9.71c-0.945-1.544-2.963-2.03-4.508-1.085
				c-1.544,0.945-2.03,2.964-1.085,4.508C385.874,182.189,387.649,185.324,389.295,188.476z"/>
			<path style="fill:#fff;" d="M408.324,235.553c-1.794,0.249-3.046,1.905-2.798,3.699c0.488,3.514,0.861,7.101,1.11,10.66
				c0.009,0.126,0.039,0.244,0.061,0.364c2.01-1.195,4.147-2.028,6.335-2.502c-0.253-3.153-0.579-6.315-1.011-9.424
				C411.773,236.556,410.106,235.308,408.324,235.553z"/>
			<path style="fill:#fff;" d="M403.403,214.239c-1.743,0.492-2.757,2.303-2.266,4.046c0.966,3.422,1.826,6.924,2.555,10.408
				c0.325,1.546,1.688,2.607,3.206,2.607c0.222,0,0.448-0.023,0.676-0.07c1.772-0.371,2.909-2.109,2.537-3.881
				c-0.761-3.631-1.656-7.279-2.662-10.846C406.956,214.761,405.142,213.749,403.403,214.239z"/>
			<path style="fill:#fff;" d="M281.648,107.195c3.489,0.714,6.994,1.558,10.419,2.508c0.294,0.082,0.588,0.121,0.879,0.121
				c1.437,0,2.755-0.952,3.157-2.403c0.485-1.745-0.538-3.552-2.283-4.036c-3.569-0.991-7.222-1.869-10.857-2.613
				c-1.78-0.366-3.507,0.781-3.87,2.555C278.73,105.1,279.874,106.832,281.648,107.195z"/>
			<path style="fill:#fff;" d="M340.308,132.556c2.911,2.05,5.788,4.227,8.553,6.47c0.607,0.493,1.339,0.733,2.064,0.733
				c0.954,0,1.9-0.414,2.548-1.213c1.141-1.406,0.926-3.471-0.479-4.613c-2.88-2.337-5.878-4.604-8.909-6.739
				c-1.481-1.044-3.528-0.687-4.569,0.793C338.472,129.468,338.828,131.514,340.308,132.556z"/>
			<path style="fill:#fff;" d="M260.416,104.345c3.553,0.232,7.142,0.59,10.666,1.063c0.147,0.02,0.295,0.029,0.44,0.029
				c1.617,0,3.025-1.197,3.246-2.843c0.24-1.795-1.019-3.445-2.815-3.686c-3.67-0.493-7.407-0.865-11.11-1.107
				c-1.812-0.117-3.366,1.252-3.485,3.058C257.24,102.666,258.609,104.227,260.416,104.345z"/>
			<path style="fill:#fff;" d="M302.29,112.921c3.358,1.185,6.719,2.503,9.992,3.918c0.424,0.184,0.865,0.271,1.299,0.271
				c1.269,0,2.476-0.741,3.012-1.978c0.718-1.662-0.046-3.592-1.709-4.311c-3.409-1.475-6.912-2.849-10.41-4.084
				c-1.712-0.602-3.581,0.293-4.184,2.001C299.687,110.445,300.583,112.318,302.29,112.921z"/>
			<path style="fill:#fff;" d="M321.976,121.435c3.165,1.636,6.313,3.401,9.357,5.248c0.532,0.322,1.118,0.476,1.697,0.476
				c1.108,0,2.19-0.562,2.806-1.579c0.939-1.548,0.446-3.565-1.103-4.504c-3.171-1.924-6.451-3.763-9.748-5.467
				c-1.612-0.832-3.586-0.2-4.418,1.407C319.737,118.626,320.367,120.604,321.976,121.435z"/>
			<path style="fill:#fff;" d="M150.739,139.351c1.402-1.145,1.611-3.211,0.466-4.614c-1.146-1.402-3.211-1.613-4.614-0.466
				c-0.77,0.629-1.526,1.288-2.288,1.935l2.614,6.376C148.179,141.483,149.454,140.4,150.739,139.351z"/>
			<path style="fill:#fff;" d="M357.181,375.785c-2.605,2.436-5.322,4.806-8.073,7.047c-1.405,1.143-1.617,3.208-0.473,4.612
				c0.648,0.796,1.591,1.209,2.544,1.209c0.727,0,1.46-0.241,2.068-0.736c2.868-2.333,5.698-4.803,8.413-7.341
				c1.323-1.236,1.393-3.311,0.156-4.634C360.578,374.619,358.507,374.547,357.181,375.785z"/>
			<path style="fill:#fff;" d="M282.044,414.782c-3.486,0.723-7.04,1.333-10.563,1.813c-1.794,0.246-3.049,1.899-2.805,3.693
				c0.225,1.644,1.631,2.835,3.245,2.835c0.148,0,0.298-0.009,0.448-0.03c3.671-0.502,7.373-1.138,11.004-1.89
				c1.774-0.367,2.913-2.103,2.546-3.876C285.552,415.553,283.82,414.408,282.044,414.782z"/>
			<path style="fill:#fff;" d="M376.426,359.651c-1.404-1.143-3.47-0.933-4.613,0.472c-2.247,2.759-4.618,5.477-7.05,8.079
				c-1.236,1.323-1.165,3.397,0.158,4.634c0.632,0.59,1.436,0.883,2.237,0.883c0.877,0,1.751-0.349,2.397-1.041
				c2.531-2.709,5.002-5.541,7.342-8.414C378.041,362.861,377.83,360.796,376.426,359.651z"/>
			<path style="fill:#fff;" d="M302.671,409.003c-3.353,1.193-6.789,2.285-10.215,3.245c-1.744,0.489-2.761,2.298-2.272,4.042
				c0.406,1.447,1.722,2.395,3.155,2.395c0.294,0,0.591-0.04,0.887-0.123c3.569-1,7.15-2.138,10.644-3.381
				c1.707-0.607,2.597-2.483,1.99-4.188C306.252,409.287,304.374,408.397,302.671,409.003z"/>
			<path style="fill:#fff;" d="M322.289,400.461c-3.159,1.641-6.412,3.191-9.666,4.608c-1.66,0.724-2.42,2.656-1.696,4.316
				c0.537,1.234,1.742,1.97,3.008,1.97c0.436,0,0.88-0.089,1.307-0.273c3.39-1.477,6.778-3.092,10.07-4.802
				c1.607-0.835,2.233-2.814,1.398-4.421C325.876,400.254,323.901,399.625,322.289,400.461z"/>
			<path style="fill:#fff;" d="M340.572,389.315c-2.903,2.053-5.915,4.034-8.954,5.888c-1.546,0.943-2.034,2.961-1.092,4.506
				c0.618,1.013,1.697,1.571,2.803,1.571c0.582,0,1.171-0.155,1.704-0.48c3.165-1.93,6.302-3.993,9.326-6.131
				c1.478-1.045,1.829-3.091,0.783-4.57C344.098,388.622,342.052,388.269,340.572,389.315z"/>
			<path style="fill:#fff;" d="M404.197,290.723c-0.143,0.749-0.271,1.505-0.424,2.248c-0.367,1.774,0.774,3.508,2.547,3.874
				c0.224,0.047,0.447,0.069,0.667,0.069c1.523,0,2.887-1.067,3.207-2.616c0.312-1.508,0.591-3.035,0.862-4.562
				C408.91,289.842,406.491,290.117,404.197,290.723z"/>
			<path style="fill:#fff;" d="M405.287,301.11c-1.747-0.488-3.553,0.532-4.041,2.276c-0.957,3.427-2.047,6.864-3.238,10.217
				c-0.606,1.706,0.286,3.581,1.993,4.187c0.363,0.129,0.733,0.19,1.097,0.19c1.349,0,2.613-0.839,3.09-2.183
				c1.24-3.492,2.376-7.074,3.375-10.646C408.049,303.407,407.031,301.598,405.287,301.11z"/>
			<path style="fill:#fff;" d="M388.696,341.525c-1.546-0.945-3.564-0.454-4.505,1.094c-1.855,3.044-3.837,6.059-5.892,8.964
				c-1.046,1.478-0.695,3.524,0.783,4.57c0.575,0.407,1.236,0.602,1.89,0.602c1.029,0,2.041-0.482,2.68-1.385
				c2.14-3.025,4.205-6.167,6.137-9.339C390.732,344.483,390.242,342.466,388.696,341.525z"/>
			<path style="fill:#fff;" d="M398.385,321.885c-1.661-0.724-3.592,0.038-4.314,1.699c-1.419,3.262-2.971,6.521-4.614,9.687
				c-0.835,1.606-0.208,3.586,1.399,4.42c0.482,0.251,0.999,0.37,1.507,0.37c1.186,0,2.33-0.645,2.914-1.77
				c1.712-3.298,3.33-6.694,4.807-10.093C400.807,324.539,400.046,322.607,398.385,321.885z"/>
			<path style="fill:#fff;" d="M197.521,409.07c-3.359-1.19-6.717-2.513-9.985-3.931c-1.66-0.72-3.592,0.041-4.314,1.702
				c-0.721,1.661,0.041,3.592,1.702,4.313c3.405,1.478,6.906,2.856,10.406,4.098c0.362,0.128,0.732,0.189,1.095,0.189
				c1.35,0,2.614-0.84,3.091-2.185C200.122,411.55,199.228,409.675,197.521,409.07z"/>
			<path style="fill:#fff;" d="M135.312,368.284c-1.237-1.321-3.313-1.39-4.635-0.154c-1.322,1.237-1.391,3.312-0.154,4.635
				c2.537,2.711,5.195,5.366,7.902,7.89c0.632,0.59,1.435,0.882,2.236,0.882c0.877,0,1.752-0.35,2.398-1.042
				c1.236-1.325,1.163-3.4-0.161-4.635C140.301,373.436,137.747,370.886,135.312,368.284z"/>
			<path style="fill:#fff;" d="M260.819,417.687c-3.546,0.241-7.151,0.364-10.718,0.366c-1.811,0.001-3.278,1.47-3.277,3.281
				c0.001,1.81,1.469,3.277,3.279,3.277c0.001,0,0.002,0,0.002,0c3.713-0.002,7.467-0.13,11.158-0.381
				c1.807-0.123,3.172-1.686,3.049-3.493C264.189,418.929,262.625,417.558,260.819,417.687z"/>
			<path style="fill:#fff;" d="M115.879,342.733c-1.856-3.039-3.627-6.178-5.266-9.328c-0.836-1.606-2.816-2.233-4.423-1.395
				c-1.606,0.836-2.231,2.816-1.396,4.422c1.708,3.282,3.554,6.551,5.487,9.718c0.618,1.012,1.697,1.57,2.802,1.57
				c0.582,0,1.172-0.155,1.705-0.48C116.335,346.297,116.823,344.278,115.879,342.733z"/>
			<path style="fill:#fff;" d="M159.529,389.386c-2.898-2.045-5.773-4.226-8.546-6.48c-1.406-1.142-3.47-0.929-4.613,0.476
				c-1.143,1.406-0.93,3.471,0.475,4.613c2.888,2.347,5.882,4.617,8.9,6.749c0.575,0.406,1.235,0.6,1.889,0.6
				c1.029,0,2.042-0.483,2.681-1.388C161.36,392.477,161.008,390.431,159.529,389.386z"/>
			<path style="fill:#fff;" d="M121.771,351.68c-1.048-1.477-3.094-1.827-4.571-0.78c-1.478,1.047-1.827,3.093-0.781,4.571
				c2.142,3.024,4.416,6.014,6.758,8.885c0.648,0.794,1.591,1.206,2.543,1.206c0.729,0,1.462-0.241,2.071-0.738
				c1.403-1.144,1.613-3.21,0.468-4.613C126.01,357.454,123.827,354.584,121.771,351.68z"/>
			<path style="fill:#fff;" d="M218.156,414.823c-3.488-0.718-6.992-1.566-10.417-2.52c-1.746-0.487-3.553,0.534-4.039,2.279
				c-0.486,1.744,0.535,3.552,2.279,4.038c3.569,0.995,7.221,1.878,10.854,2.627c0.224,0.046,0.446,0.068,0.665,0.068
				c1.524,0,2.889-1.068,3.208-2.618C221.071,416.923,219.93,415.188,218.156,414.823z"/>
			<path style="fill:#fff;" d="M239.386,417.701c-3.56-0.238-7.148-0.6-10.664-1.076c-1.792-0.245-3.447,1.014-3.689,2.809
				c-0.243,1.794,1.014,3.445,2.809,3.689c3.664,0.496,7.401,0.873,11.109,1.121c0.074,0.005,0.148,0.007,0.221,0.007
				c1.712,0,3.153-1.328,3.268-3.061C242.559,419.384,241.193,417.821,239.386,417.701z"/>
			<path style="fill:#fff;" d="M106,323.744c-1.421-3.259-2.747-6.606-3.94-9.951c-0.474-1.327-1.716-2.15-3.046-2.168v5.078
				H96.15c1.176,3.249,2.458,6.497,3.839,9.662c0.538,1.234,1.743,1.969,3.007,1.969c0.438,0,0.883-0.089,1.309-0.274
				C105.965,327.336,106.724,325.404,106,323.744z"/>
			<path style="fill:#fff;" d="M177.846,400.53c-3.166-1.64-6.311-3.409-9.349-5.259c-1.547-0.944-3.564-0.452-4.506,1.095
				c-0.941,1.548-0.451,3.565,1.096,4.506c3.165,1.928,6.443,3.771,9.742,5.481c0.482,0.25,0.998,0.368,1.506,0.368
				c1.186,0,2.33-0.646,2.914-1.772C180.082,403.343,179.453,401.364,177.846,400.53z"/>
		</g>
		<g>
			<path style="fill:#fff;" d="M349.306,243.72c0,1.754-1.422,3.175-3.175,3.175s-3.175-1.422-3.175-3.175
				c0-1.754,1.422-3.175,3.175-3.175S349.306,241.967,349.306,243.72z"/>
			<path style="fill:#fff;" d="M359.09,243.72c0,1.754-1.422,3.175-3.175,3.175c-1.754,0-3.175-1.422-3.175-3.175
				c0-1.754,1.422-3.175,3.175-3.175C357.668,240.545,359.09,241.967,359.09,243.72z"/>
			<path style="fill:#fff;" d="M368.874,243.72c0,1.754-1.422,3.175-3.175,3.175c-1.754,0-3.175-1.422-3.175-3.175
				c0-1.754,1.422-3.175,3.175-3.175C367.452,240.545,368.874,241.967,368.874,243.72z"/>
			<path style="fill:none;stroke:#fff;stroke-width:6;stroke-linejoin:round;stroke-miterlimit:10;" d="M355.915,216.524
				c-17.79,0-32.212,9.961-32.212,22.249c0,7.268,5.048,13.721,12.852,17.781c0,0-1.329,8.013-10.289,12.154
				c0,0,20.491,3.677,29.649-7.687c17.791,0,32.213-9.961,32.213-22.249C388.127,226.485,373.705,216.524,355.915,216.524z"/>
		</g>
		

		
			<line style="fill:none;stroke:#fff;stroke-width:4;stroke-linecap:round;stroke-linejoin:round;stroke-miterlimit:10;" x1="199.706" y1="378.776" x2="199.706" y2="346.11"/>
		
			<line style="fill:none;stroke:#fff;stroke-width:4;stroke-linecap:round;stroke-linejoin:round;stroke-miterlimit:10;" x1="199.706" y1="326.276" x2="199.706" y2="335.443"/>
		<path style="fill:none;stroke:#fff;stroke-width:4;stroke-linecap:round;stroke-linejoin:round;stroke-miterlimit:10;" d="
			M226.301,181.19c5.149-1.234,10.169-3.01,14.943-5.299c6.008-2.881,11.67-6.577,18.025-8.581c6.355-2.004,13.231-2.356,19.935,0.8
			"/>
		<path style="fill:none;stroke:#fff;stroke-width:4;stroke-linecap:round;stroke-linejoin:round;stroke-miterlimit:10;" d="
			M210.741,183.237c1.663-0.042,3.325-0.141,4.982-0.295"/>
		<path style="fill:none;stroke:#fff;stroke-width:4;stroke-linecap:round;stroke-linejoin:round;stroke-miterlimit:10;" d="
			M236.605,171.48c4.827-2.376,9.24-5.521,14.034-7.961c4.795-2.44,12.49-4.069,17.736-4.019"/>
		<path style="fill:none;stroke:#fff;stroke-width:4;stroke-linecap:round;stroke-linejoin:round;stroke-miterlimit:10;" d="
			M212.023,176.527c5.71,0.3,11.468-0.405,16.944-2.048"/>
		<path style="fill:none;stroke:#fff;stroke-width:4;stroke-linecap:round;stroke-linejoin:round;stroke-miterlimit:10;" d="
			M215.552,146.891c14.71-9.175,34.448-10.782,50.857-6.508"/>
		<path style="fill:none;stroke:#fff;stroke-width:4;stroke-linecap:round;stroke-linejoin:round;stroke-miterlimit:10;" d="
			M272.833,142.51c0,0,9,2.894,12.167,6.163"/>
		<path style="fill:none;stroke:#fff;stroke-width:4;stroke-linecap:round;stroke-linejoin:round;stroke-miterlimit:10;" d="
			M251.867,156.029c-12.619,1.655-24.807,6.503-35.116,13.966"/>
		
			<line style="fill:none;stroke:#fff;stroke-width:4;stroke-linecap:round;stroke-linejoin:round;stroke-miterlimit:10;" x1="197.635" y1="232.879" x2="197.635" y2="216.476"/>
		
			<line style="fill:none;stroke:#fff;stroke-width:4;stroke-linecap:round;stroke-linejoin:round;stroke-miterlimit:10;" x1="301.102" y1="232.879" x2="301.102" y2="216.476"/>
		<g>
			<polygon style="fill:#fff;" points="151.877,235.981 137.84,249.216 144.824,249.216 144.824,263.052 158.93,263.052
				158.93,249.216 165.915,249.216 			"/>
			<polygon style="fill:#ffff;" points="178.533,267.993 192.57,254.758 185.586,254.758 185.586,240.922 171.48,240.922
				171.48,254.758 164.495,254.758 			"/>
		</g>
	</g>
</g>
</svg>
