<?xml version="1.0" encoding="UTF-8" standalone="no"?>
<!-- Generator: Adobe Illustrator 27.5.0, SVG Export Plug-In . SVG Version: 6.00 Build 0)  -->

<svg
   version="1.1"
   id="Ñëîé_1"
   x="0px"
   y="0px"
   viewBox="0 0 500 400"
   xml:space="preserve"
   width="500"
   height="400"
   xmlns="http://www.w3.org/2000/svg"
   xmlns:svg="http://www.w3.org/2000/svg"><defs
   id="defs295" />
<radialGradient
   id="SVGID_1_"
   cx="289.50061"
   cy="590.98187"
   r="372.0755"
   gradientUnits="userSpaceOnUse">
	<stop
   offset="0"
   style="stop-color:#22215B"
   id="stop1" />
	<stop
   offset="0.4018"
   style="stop-color:#1F1E55"
   id="stop2" />
	<stop
   offset="0.9253"
   style="stop-color:#171445"
   id="stop3" />
	<stop
   offset="1"
   style="stop-color:#161242"
   id="stop4" />
</radialGradient>
<rect
   y="0"
   style="fill:url(#SVGID_1_)"
   width="600"
   height="450"
   id="rect4"
   x="0" />
<radialGradient
   id="SVGID_00000132809257979111205680000014803127492402767288_"
   cx="218.9278"
   cy="324.99438"
   r="4.8355999"
   gradientUnits="userSpaceOnUse"
   gradientTransform="translate(-42.54715,-49.510309)">
	<stop
   offset="0"
   style="stop-color:#6EE1F8"
   id="stop5" />
	<stop
   offset="0.187"
   style="stop-color:#57B1CC"
   id="stop6" />
	<stop
   offset="0.4751"
   style="stop-color:#376C8D"
   id="stop7" />
	<stop
   offset="0.7164"
   style="stop-color:#203A5F"
   id="stop8" />
	<stop
   offset="0.8984"
   style="stop-color:#111B43"
   id="stop9" />
	<stop
   offset="1"
   style="stop-color:#0C0F38"
   id="stop10" />
</radialGradient>
<path
   style="fill:url(#SVGID_00000132809257979111205680000014803127492402767288_)"
   d="m 180.56685,277.90269 c -1.336,2.312 -4.293,3.103 -6.605,1.767 -2.312,-1.336 -3.103,-4.293 -1.767,-6.605 1.336,-2.312 4.293,-3.103 6.605,-1.767 2.312,1.336 3.103,4.294 1.767,6.605 z"
   id="path10" />
<radialGradient
   id="SVGID_00000097459293886500875670000004187114865405709496_"
   cx="26.5418"
   cy="1198.5364"
   r="9.1218004"
   gradientTransform="matrix(1,0,0,-1,320.26935,1473.9526)"
   gradientUnits="userSpaceOnUse">
	<stop
   offset="0"
   style="stop-color:#25BFEC"
   id="stop11" />
	<stop
   offset="0.0554"
   style="stop-color:#21A6D3"
   id="stop12" />
	<stop
   offset="0.1578"
   style="stop-color:#1C7EAA"
   id="stop13" />
	<stop
   offset="0.2665"
   style="stop-color:#175C87"
   id="stop14" />
	<stop
   offset="0.3808"
   style="stop-color:#13406A"
   id="stop15" />
	<stop
   offset="0.5026"
   style="stop-color:#102A54"
   id="stop16" />
	<stop
   offset="0.6353"
   style="stop-color:#0E1B44"
   id="stop17" />
	<stop
   offset="0.787"
   style="stop-color:#0C123B"
   id="stop18" />
	<stop
   offset="1"
   style="stop-color:#0C0F38"
   id="stop19" />
</radialGradient>
<circle
   style="fill:url(#SVGID_00000097459293886500875670000004187114865405709496_)"
   cx="346.81085"
   cy="275.41568"
   r="9.1199999"
   id="circle19" />
<radialGradient
   id="SVGID_00000063634706551028290330000011672607539751218061_"
   cx="345.95621"
   cy="324.92719"
   r="4.8355999"
   gradientTransform="matrix(-1,0,0,1,692.78125,-49.510309)"
   gradientUnits="userSpaceOnUse">
	<stop
   offset="0"
   style="stop-color:#6EE1F8"
   id="stop20" />
	<stop
   offset="0.187"
   style="stop-color:#57B1CC"
   id="stop21" />
	<stop
   offset="0.4751"
   style="stop-color:#376C8D"
   id="stop22" />
	<stop
   offset="0.7164"
   style="stop-color:#203A5F"
   id="stop23" />
	<stop
   offset="0.8984"
   style="stop-color:#111B43"
   id="stop24" />
	<stop
   offset="1"
   style="stop-color:#0C0F38"
   id="stop25" />
</radialGradient>
<path
   style="fill:url(#SVGID_00000063634706551028290330000011672607539751218061_)"
   d="m 342.63885,277.83569 c 1.336,2.312 4.293,3.103 6.605,1.767 2.312,-1.336 3.103,-4.293 1.767,-6.605 -1.336,-2.312 -4.293,-3.103 -6.605,-1.767 -2.312,1.336 -3.103,4.293 -1.767,6.605 z"
   id="path25" />
<path
   style="opacity:0.2;fill:#267fe5"
   d="m 260.81385,322.82169 c -4.62,0 -9.051,-0.961 -12.434,-2.914 l -159.143,-91.882 c -3.673,-2.12 -5.695,-5.177 -5.695,-8.607 0,-3.941 2.748,-7.788 7.54,-10.555 l 155.449,-89.749 c 8.421,-4.862 20.805,-5.329 28.191,-1.064 l 159.143,91.881 c 3.673,2.12 5.695,5.177 5.695,8.606 0,3.941 -2.748,7.789 -7.54,10.557 l -155.449,89.748 c -4.564,2.634 -10.292,3.979 -15.757,3.979 z m 1.533,-202.663 c -4.634,0 -9.562,1.117 -13.316,3.285 l -155.449,89.749 c -3.156,1.822 -5.04,4.149 -5.04,6.225 0,2.011 1.738,3.435 3.195,4.277 l 159.143,91.882 c 5.784,3.339 16.405,2.853 23.19,-1.065 l 155.449,-89.748 c 3.156,-1.822 5.04,-4.15 5.04,-6.227 0,-2.01 -1.737,-3.435 -3.195,-4.276 l -159.143,-91.881 c -2.584,-1.492 -6.134,-2.221 -9.874,-2.221 z"
   id="path26" />
<g
   id="g79"
   transform="translate(-42.54715,-49.510309)">
	<g
   id="g76">
		<path
   style="fill:#0c0f38"
   d="M 297.856,258.313 249.371,230.32 c -3.447,-1.99 -3.015,-5.467 0.966,-7.765 l 46.552,-26.877 c 3.981,-2.298 10.002,-2.548 13.449,-0.557 l 48.485,27.993 c 3.447,1.99 3.015,5.467 -0.966,7.765 l -46.552,26.877 c -3.98,2.298 -10.001,2.548 -13.449,0.557 z"
   id="path27" />
		
			<linearGradient
   id="SVGID_00000015313502267203024140000017092169486964727936_"
   gradientUnits="userSpaceOnUse"
   x1="234.6552"
   y1="182.46049"
   x2="376.95151"
   y2="182.46049">
			<stop
   offset="0"
   style="stop-color:#A31FA9"
   id="stop27" />
			<stop
   offset="0.0668"
   style="stop-color:#8B17A0"
   id="stop28" />
			<stop
   offset="0.1494"
   style="stop-color:#740F98"
   id="stop29" />
			<stop
   offset="0.2393"
   style="stop-color:#640A92"
   id="stop30" />
			<stop
   offset="0.3408"
   style="stop-color:#5B078F"
   id="stop31" />
			<stop
   offset="0.4785"
   style="stop-color:#58068E"
   id="stop32" />
			<stop
   offset="0.6264"
   style="stop-color:#4D22A3"
   id="stop33" />
			<stop
   offset="0.9436"
   style="stop-color:#3168DA"
   id="stop34" />
			<stop
   offset="1"
   style="stop-color:#2C75E4"
   id="stop35" />
		</linearGradient>
		<path
   style="fill:url(#SVGID_00000015313502267203024140000017092169486964727936_)"
   d="m 362.497,139.727 h -24.613 l -27.399,-15.819 c -3.529,-2.037 -9.692,-1.782 -13.767,0.571 l -26.41,15.248 h -24.601 v 68.943 h 0.008 c -0.1,1.379 0.669,2.71 2.364,3.688 l 49.629,28.654 c 3.529,2.037 9.692,1.782 13.767,-0.571 l 47.651,-27.511 c 2.117,-1.222 3.244,-2.769 3.352,-4.26 h 0.018 v -68.943 z"
   id="path35" />
		<path
   style="fill:#d4088c"
   d="m 251.94,139.727 h -6.233 v 68.943 h 0.008 c -0.071,0.978 0.305,1.93 1.129,2.751 -0.527,-0.702 -0.766,-1.476 -0.708,-2.268 h -0.008 V 140.21 h 6.298 c -0.154,-0.166 -0.318,-0.328 -0.486,-0.483 z"
   id="path36" />
		<path
   style="fill:#6de0f6"
   d="m 354.619,139.727 c -0.045,0.138 -0.092,0.276 -0.141,0.415 h 7.577 v 68.943 h -0.018 c -0.067,0.924 -0.528,1.869 -1.371,2.746 1.121,-0.989 1.735,-2.088 1.813,-3.161 h 0.018 v -68.943 z"
   id="path37" />
		<polygon
   style="opacity:0.5;fill:#d4088c"
   points="254.154,215.865 263.093,221.025 263.093,141.059 254.154,141.059 "
   id="polygon37" />
		<polygon
   style="opacity:0.3;fill:#d4088c"
   points="266.139,222.784 268.581,224.194 268.581,146.43 266.139,146.43 "
   id="polygon38" />
		<polygon
   style="opacity:0.15;fill:#d4088c"
   points="270.51,225.307 272.952,226.717 272.952,147.369 270.51,147.369 "
   id="polygon39" />
		
			<linearGradient
   id="SVGID_00000132784776795171137370000010578151204178805634_"
   gradientUnits="userSpaceOnUse"
   x1="496.3887"
   y1="710.12927"
   x2="563.51031"
   y2="652.00031"
   gradientTransform="matrix(0.866,0.5,-1,0.5774,525.0016,-518.4943)">
			<stop
   offset="0"
   style="stop-color:#267FE5"
   id="stop39" />
			<stop
   offset="0.1699"
   style="stop-color:#2C87E7"
   id="stop40" />
			<stop
   offset="0.441"
   style="stop-color:#3D9FEB"
   id="stop41" />
			<stop
   offset="0.7773"
   style="stop-color:#59C4F2"
   id="stop42" />
			<stop
   offset="1"
   style="stop-color:#6EE1F8"
   id="stop43" />
		</linearGradient>
		<path
   style="fill:url(#SVGID_00000132784776795171137370000010578151204178805634_)"
   d="M 297.709,172.069 248.08,143.415 c -3.529,-2.037 -3.086,-5.596 0.988,-7.948 l 47.651,-27.511 c 4.075,-2.353 10.238,-2.608 13.767,-0.571 l 49.629,28.654 c 3.529,2.037 3.086,5.596 -0.988,7.948 l -47.651,27.511 c -4.075,2.353 -10.238,2.608 -13.767,0.571 z"
   id="path43" />
		<path
   style="fill:#6de0f6"
   d="m 298.255,172.069 -49.629,-28.654 c -3.529,-2.037 -3.086,-5.596 0.988,-7.948 l 47.651,-27.511 c 2.018,-1.165 4.549,-1.813 7.019,-1.925 -2.64,0.035 -5.396,0.673 -7.565,1.925 l -47.651,27.511 c -4.075,2.352 -4.517,5.911 -0.988,7.948 l 49.629,28.654 c 1.781,1.028 4.232,1.469 6.748,1.354 -2.32,0.031 -4.551,-0.401 -6.202,-1.354 z"
   id="path44" />
		<path
   style="fill:#6de0f6"
   d="m 360.115,136.039 -49.629,-28.654 c -1.783,-1.03 -4.24,-1.469 -6.759,-1.353 2.292,-0.019 4.492,0.411 6.124,1.353 l 49.629,28.654 c 3.529,2.037 3.086,5.596 -0.988,7.949 l -47.651,27.511 c -2.015,1.163 -4.542,1.81 -7.007,1.924 2.664,-0.022 5.453,-0.659 7.643,-1.924 l 47.651,-27.511 c 4.073,-2.353 4.516,-5.912 0.987,-7.949 z"
   id="path45" />
		<path
   style="fill:#6de0f6"
   d="m 303.792,164.996 c -1.701,0 -3.324,-0.343 -4.536,-1.042 l -36.949,-21.332 c -1.199,-0.692 -1.859,-1.658 -1.859,-2.718 0,-1.269 0.946,-2.544 2.595,-3.496 l 35.476,-20.482 c 3.076,-1.777 7.75,-1.966 10.42,-0.425 l 36.949,21.332 c 1.199,0.692 1.859,1.658 1.859,2.719 0,1.269 -0.946,2.543 -2.595,3.496 l -35.476,20.482 c -1.68,0.969 -3.837,1.466 -5.884,1.466 z m 0.611,-50.201 c -1.985,0 -4.08,0.484 -5.714,1.427 l -35.476,20.482 c -1.54,0.889 -2.424,2.056 -2.424,3.199 0,0.933 0.599,1.794 1.688,2.422 l 36.949,21.332 c 2.576,1.488 7.097,1.297 10.079,-0.425 l 35.476,-20.482 c 1.54,-0.889 2.424,-2.056 2.424,-3.199 0,-0.934 -0.6,-1.794 -1.688,-2.422 l -36.949,-21.332 c -1.165,-0.673 -2.727,-1.002 -4.365,-1.002 z"
   id="path46" />
		<g
   id="g65">
			<g
   id="g48">
				<path
   style="fill:#6de0f6"
   d="m 312.892,176.962 41.982,-24.283 c 0.384,-0.222 0.695,-0.816 0.695,-1.329 v -0.689 c 0,-0.512 -0.311,-0.747 -0.695,-0.526 l -41.982,24.283 c -0.384,0.222 -0.695,0.816 -0.695,1.328 v 0.689 c -10e-4,0.514 0.311,0.749 0.695,0.527 z"
   id="path47" />
				<path
   style="fill:#267fe5"
   d="m 353.954,152.154 c 0.384,-0.222 0.695,-0.817 0.695,-1.329 v -0.56 l 0.224,-0.129 c 0.384,-0.222 0.695,0.014 0.695,0.526 v 0.689 c 0,0.512 -0.311,1.107 -0.695,1.329 l -41.982,24.283 c -0.384,0.222 -0.695,-0.014 -0.695,-0.526 v -0.129 z"
   id="path48" />
			</g>
			<g
   id="g50">
				<path
   style="fill:#6de0f6"
   d="m 312.892,184.351 41.982,-24.283 c 0.384,-0.222 0.695,-0.816 0.695,-1.329 v -0.689 c 0,-0.512 -0.311,-0.747 -0.695,-0.526 l -41.982,24.283 c -0.384,0.222 -0.695,0.816 -0.695,1.328 v 0.689 c -10e-4,0.513 0.311,0.748 0.695,0.527 z"
   id="path49" />
				<path
   style="fill:#267fe5"
   d="m 353.954,159.543 c 0.384,-0.222 0.695,-0.817 0.695,-1.329 v -0.56 l 0.224,-0.129 c 0.384,-0.222 0.695,0.014 0.695,0.526 v 0.689 c 0,0.512 -0.311,1.107 -0.695,1.329 l -41.982,24.283 c -0.384,0.222 -0.695,-0.014 -0.695,-0.526 v -0.129 z"
   id="path50" />
			</g>
			<g
   id="g52">
				<path
   style="fill:#6de0f6"
   d="m 312.892,191.739 41.982,-24.283 c 0.384,-0.222 0.695,-0.816 0.695,-1.328 v -0.689 c 0,-0.512 -0.311,-0.747 -0.695,-0.526 l -41.982,24.283 c -0.384,0.222 -0.695,0.816 -0.695,1.329 v 0.689 c -10e-4,0.511 0.311,0.747 0.695,0.525 z"
   id="path51" />
				<path
   style="fill:#267fe5"
   d="m 353.954,166.931 c 0.384,-0.222 0.695,-0.817 0.695,-1.329 v -0.56 l 0.224,-0.129 c 0.384,-0.222 0.695,0.014 0.695,0.526 v 0.689 c 0,0.512 -0.311,1.107 -0.695,1.329 l -41.982,24.283 c -0.384,0.222 -0.695,-0.014 -0.695,-0.526 v -0.129 z"
   id="path52" />
			</g>
			<g
   id="g54">
				<path
   style="fill:#6de0f6"
   d="m 312.892,199.127 41.982,-24.283 c 0.384,-0.222 0.695,-0.816 0.695,-1.328 v -0.689 c 0,-0.512 -0.311,-0.747 -0.695,-0.526 l -41.982,24.283 c -0.384,0.222 -0.695,0.816 -0.695,1.329 v 0.689 c -10e-4,0.512 0.311,0.747 0.695,0.525 z"
   id="path53" />
				<path
   style="fill:#267fe5"
   d="m 353.954,174.32 c 0.384,-0.222 0.695,-0.817 0.695,-1.329 v -0.56 l 0.224,-0.129 c 0.384,-0.222 0.695,0.014 0.695,0.526 v 0.689 c 0,0.512 -0.311,1.107 -0.695,1.329 l -41.982,24.283 c -0.384,0.222 -0.695,-0.014 -0.695,-0.526 v -0.129 z"
   id="path54" />
			</g>
			<g
   id="g56">
				<path
   style="fill:#6de0f6"
   d="m 312.892,206.516 41.982,-24.283 c 0.384,-0.222 0.695,-0.816 0.695,-1.328 v -0.689 c 0,-0.512 -0.311,-0.747 -0.695,-0.526 l -41.982,24.283 c -0.384,0.222 -0.695,0.817 -0.695,1.329 v 0.689 c -10e-4,0.511 0.311,0.747 0.695,0.525 z"
   id="path55" />
				<path
   style="fill:#267fe5"
   d="m 353.954,181.708 c 0.384,-0.222 0.695,-0.817 0.695,-1.329 v -0.56 l 0.224,-0.129 c 0.384,-0.222 0.695,0.014 0.695,0.526 v 0.689 c 0,0.512 -0.311,1.107 -0.695,1.329 l -41.982,24.283 c -0.384,0.222 -0.695,-0.014 -0.695,-0.526 v -0.129 z"
   id="path56" />
			</g>
			<g
   id="g58">
				<path
   style="fill:#6de0f6"
   d="m 312.892,213.904 41.982,-24.283 c 0.384,-0.222 0.695,-0.817 0.695,-1.329 v -0.689 c 0,-0.512 -0.311,-0.747 -0.695,-0.526 l -41.982,24.283 c -0.384,0.222 -0.695,0.816 -0.695,1.328 v 0.689 c -10e-4,0.514 0.311,0.749 0.695,0.527 z"
   id="path57" />
				<path
   style="fill:#267fe5"
   d="m 353.954,189.096 c 0.384,-0.222 0.695,-0.817 0.695,-1.329 v -0.56 l 0.224,-0.129 c 0.384,-0.222 0.695,0.014 0.695,0.526 v 0.689 c 0,0.512 -0.311,1.107 -0.695,1.329 l -41.982,24.283 c -0.384,0.222 -0.695,-0.014 -0.695,-0.526 v -0.129 z"
   id="path58" />
			</g>
			<g
   id="g60">
				<path
   style="fill:#6de0f6"
   d="m 312.892,221.293 41.982,-24.283 c 0.384,-0.222 0.695,-0.816 0.695,-1.329 v -0.689 c 0,-0.512 -0.311,-0.747 -0.695,-0.526 l -41.982,24.283 c -0.384,0.222 -0.695,0.816 -0.695,1.328 v 0.689 c -10e-4,0.513 0.311,0.748 0.695,0.527 z"
   id="path59" />
				<path
   style="fill:#267fe5"
   d="m 353.954,196.485 c 0.384,-0.222 0.695,-0.817 0.695,-1.329 v -0.56 l 0.224,-0.129 c 0.384,-0.222 0.695,0.014 0.695,0.526 v 0.689 c 0,0.512 -0.311,1.107 -0.695,1.329 l -41.982,24.283 c -0.384,0.222 -0.695,-0.014 -0.695,-0.526 v -0.129 z"
   id="path60" />
			</g>
			<g
   id="g62">
				<path
   style="fill:#6de0f6"
   d="m 312.892,228.681 41.982,-24.283 c 0.384,-0.222 0.695,-0.816 0.695,-1.329 v -0.689 c 0,-0.512 -0.311,-0.747 -0.695,-0.526 l -41.982,24.283 c -0.384,0.222 -0.695,0.816 -0.695,1.329 v 0.689 c -10e-4,0.512 0.311,0.748 0.695,0.526 z"
   id="path61" />
				<path
   style="fill:#267fe5"
   d="m 353.954,203.873 c 0.384,-0.222 0.695,-0.817 0.695,-1.329 v -0.56 l 0.224,-0.129 c 0.384,-0.222 0.695,0.014 0.695,0.526 v 0.689 c 0,0.512 -0.311,1.107 -0.695,1.329 l -41.982,24.282 c -0.384,0.222 -0.695,-0.014 -0.695,-0.526 v -0.129 z"
   id="path62" />
			</g>
			<g
   id="g64">
				<path
   style="fill:#6de0f6"
   d="m 312.892,236.069 41.982,-24.283 c 0.384,-0.222 0.695,-0.816 0.695,-1.328 v -0.689 c 0,-0.512 -0.311,-0.747 -0.695,-0.526 l -41.982,24.283 c -0.384,0.222 -0.695,0.816 -0.695,1.329 v 0.689 c -10e-4,0.512 0.311,0.747 0.695,0.525 z"
   id="path63" />
				<path
   style="fill:#267fe5"
   d="m 353.954,211.262 c 0.384,-0.222 0.695,-0.817 0.695,-1.329 v -0.56 l 0.224,-0.129 c 0.384,-0.222 0.695,0.014 0.695,0.526 v 0.689 c 0,0.512 -0.311,1.107 -0.695,1.329 l -41.982,24.283 c -0.384,0.222 -0.695,-0.014 -0.695,-0.526 v -0.129 z"
   id="path64" />
			</g>
		</g>
		<g
   id="g75">
			<g
   id="g66">
				<circle
   style="fill:#6de0f6"
   cx="304.09698"
   cy="178.164"
   r="1.127"
   id="circle65" />
				<path
   style="fill:#267fe5"
   d="m 304.097,178.868 c -0.55,0 -1.007,-0.394 -1.106,-0.915 -0.013,0.069 -0.021,0.139 -0.021,0.211 0,0.622 0.505,1.127 1.127,1.127 0.622,0 1.127,-0.505 1.127,-1.127 0,-0.072 -0.008,-0.143 -0.021,-0.211 -0.099,0.521 -0.556,0.915 -1.106,0.915 z"
   id="path65" />
			</g>
			<g
   id="g67">
				<circle
   style="fill:#6de0f6"
   cx="304.09698"
   cy="185.552"
   r="1.127"
   id="circle66" />
				<path
   style="fill:#267fe5"
   d="m 304.097,186.257 c -0.55,0 -1.007,-0.394 -1.106,-0.915 -0.013,0.069 -0.021,0.139 -0.021,0.211 0,0.622 0.505,1.127 1.127,1.127 0.622,0 1.127,-0.504 1.127,-1.127 0,-0.072 -0.008,-0.143 -0.021,-0.211 -0.099,0.52 -0.556,0.915 -1.106,0.915 z"
   id="path66" />
			</g>
			<g
   id="g68">
				<circle
   style="fill:#6de0f6"
   cx="304.09698"
   cy="192.94099"
   r="1.127"
   id="circle67" />
				<path
   style="fill:#267fe5"
   d="m 304.097,193.645 c -0.55,0 -1.007,-0.394 -1.106,-0.915 -0.013,0.069 -0.021,0.139 -0.021,0.211 0,0.622 0.505,1.127 1.127,1.127 0.622,0 1.127,-0.505 1.127,-1.127 0,-0.072 -0.008,-0.143 -0.021,-0.211 -0.099,0.521 -0.556,0.915 -1.106,0.915 z"
   id="path67" />
			</g>
			<g
   id="g69">
				<circle
   style="fill:#6de0f6"
   cx="304.09698"
   cy="200.32899"
   r="1.127"
   id="circle68" />
				<path
   style="fill:#267fe5"
   d="m 304.097,201.033 c -0.55,0 -1.007,-0.394 -1.106,-0.915 -0.013,0.069 -0.021,0.139 -0.021,0.211 0,0.622 0.505,1.127 1.127,1.127 0.622,0 1.127,-0.505 1.127,-1.127 0,-0.072 -0.008,-0.143 -0.021,-0.211 -0.099,0.521 -0.556,0.915 -1.106,0.915 z"
   id="path68" />
			</g>
			<g
   id="g70">
				<circle
   style="fill:#6de0f6"
   cx="304.09698"
   cy="207.717"
   r="1.127"
   id="circle69" />
				<path
   style="fill:#267fe5"
   d="m 304.097,208.422 c -0.55,0 -1.007,-0.394 -1.106,-0.916 -0.013,0.069 -0.021,0.139 -0.021,0.211 0,0.622 0.505,1.127 1.127,1.127 0.622,0 1.127,-0.505 1.127,-1.127 0,-0.072 -0.008,-0.143 -0.021,-0.211 -0.099,0.521 -0.556,0.916 -1.106,0.916 z"
   id="path69" />
			</g>
			<g
   id="g71">
				<circle
   style="fill:#6de0f6"
   cx="304.09698"
   cy="215.106"
   r="1.127"
   id="circle70" />
				<path
   style="fill:#267fe5"
   d="m 304.097,215.81 c -0.55,0 -1.007,-0.394 -1.106,-0.915 -0.013,0.069 -0.021,0.139 -0.021,0.211 0,0.622 0.505,1.127 1.127,1.127 0.622,0 1.127,-0.505 1.127,-1.127 0,-0.072 -0.008,-0.143 -0.021,-0.211 -0.099,0.521 -0.556,0.915 -1.106,0.915 z"
   id="path70" />
			</g>
			<g
   id="g72">
				<circle
   style="fill:#6de0f6"
   cx="304.09698"
   cy="222.494"
   r="1.127"
   id="circle71" />
				<path
   style="fill:#267fe5"
   d="m 304.097,223.199 c -0.55,0 -1.007,-0.394 -1.106,-0.915 -0.013,0.069 -0.021,0.139 -0.021,0.211 0,0.622 0.505,1.127 1.127,1.127 0.622,0 1.127,-0.505 1.127,-1.127 0,-0.072 -0.008,-0.143 -0.021,-0.211 -0.099,0.52 -0.556,0.915 -1.106,0.915 z"
   id="path71" />
			</g>
			<g
   id="g73">
				<circle
   style="fill:#6de0f6"
   cx="304.09698"
   cy="229.883"
   r="1.127"
   id="circle72" />
				<path
   style="fill:#267fe5"
   d="m 304.097,230.587 c -0.55,0 -1.007,-0.394 -1.106,-0.915 -0.013,0.069 -0.021,0.139 -0.021,0.211 0,0.622 0.505,1.127 1.127,1.127 0.622,0 1.127,-0.505 1.127,-1.127 0,-0.072 -0.008,-0.143 -0.021,-0.211 -0.099,0.521 -0.556,0.915 -1.106,0.915 z"
   id="path72" />
			</g>
			<g
   id="g74">
				<circle
   style="fill:#6de0f6"
   cx="304.09698"
   cy="237.271"
   r="1.127"
   id="circle73" />
				<path
   style="fill:#267fe5"
   d="m 304.097,237.975 c -0.55,0 -1.007,-0.394 -1.106,-0.915 -0.013,0.069 -0.021,0.139 -0.021,0.211 0,0.622 0.505,1.127 1.127,1.127 0.622,0 1.127,-0.505 1.127,-1.127 0,-0.072 -0.008,-0.143 -0.021,-0.211 -0.099,0.521 -0.556,0.915 -1.106,0.915 z"
   id="path73" />
			</g>
		</g>
	</g>
	<g
   id="g78">
		<g
   id="g77">
			<path
   style="fill:#161242"
   d="m 287.987,226.465 c -0.225,0 -0.467,-0.071 -0.711,-0.212 l -1.68,-0.97 c -0.914,-0.527 -1.658,-1.941 -1.658,-3.152 v -45.347 c 0,-0.671 0.229,-1.189 0.629,-1.42 0.341,-0.197 0.767,-0.166 1.2,0.083 l 1.681,0.97 c 0.914,0.528 1.658,1.942 1.658,3.152 v 45.347 c 0,0.671 -0.229,1.189 -0.629,1.42 -0.15,0.086 -0.315,0.129 -0.49,0.129 z m -2.931,-50.885 c -0.116,0 -0.224,0.027 -0.319,0.082 -0.291,0.168 -0.458,0.577 -0.458,1.123 v 45.347 c 0,1.101 0.667,2.382 1.486,2.855 l 1.681,0.97 c 0.322,0.186 0.626,0.215 0.857,0.083 0.291,-0.168 0.458,-0.577 0.458,-1.123 V 179.57 c 0,-1.101 -0.667,-2.382 -1.486,-2.855 l -1.68,-0.97 c -0.19,-0.11 -0.373,-0.165 -0.539,-0.165 z"
   id="path76" />
		</g>
	</g>
</g>
<g
   id="g131"
   transform="translate(-42.54715,-49.510309)">
	<g
   id="g128">
		<path
   style="fill:#0c0f38"
   d="m 219.296,306.489 -48.485,-27.993 c -3.447,-1.99 -3.015,-5.467 0.966,-7.765 l 46.552,-26.877 c 3.981,-2.298 10.002,-2.548 13.449,-0.557 l 48.485,27.993 c 3.447,1.99 3.015,5.467 -0.966,7.765 l -46.552,26.877 c -3.98,2.298 -10.001,2.548 -13.449,0.557 z"
   id="path79" />
		
			<linearGradient
   id="SVGID_00000026143810736091416140000017688532512210365574_"
   gradientUnits="userSpaceOnUse"
   x1="156.09531"
   y1="230.63651"
   x2="298.39182"
   y2="230.63651">
			<stop
   offset="0"
   style="stop-color:#A31FA9"
   id="stop79" />
			<stop
   offset="0.0668"
   style="stop-color:#8B17A0"
   id="stop80" />
			<stop
   offset="0.1494"
   style="stop-color:#740F98"
   id="stop81" />
			<stop
   offset="0.2393"
   style="stop-color:#640A92"
   id="stop82" />
			<stop
   offset="0.3408"
   style="stop-color:#5B078F"
   id="stop83" />
			<stop
   offset="0.4785"
   style="stop-color:#58068E"
   id="stop84" />
			<stop
   offset="0.6264"
   style="stop-color:#4D22A3"
   id="stop85" />
			<stop
   offset="0.9436"
   style="stop-color:#3168DA"
   id="stop86" />
			<stop
   offset="1"
   style="stop-color:#2C75E4"
   id="stop87" />
		</linearGradient>
		<path
   style="fill:url(#SVGID_00000026143810736091416140000017688532512210365574_)"
   d="m 283.938,187.903 h -24.613 l -27.399,-15.819 c -3.529,-2.037 -9.692,-1.782 -13.767,0.571 l -26.41,15.248 h -24.601 v 68.943 h 0.008 c -0.1,1.379 0.669,2.71 2.364,3.688 l 49.629,28.654 c 3.529,2.037 9.692,1.782 13.767,-0.571 l 47.651,-27.511 c 2.117,-1.222 3.244,-2.769 3.353,-4.26 h 0.018 z"
   id="path87" />
		<path
   style="fill:#d4088c"
   d="m 173.381,187.903 h -6.233 v 68.943 h 0.008 c -0.071,0.978 0.305,1.93 1.129,2.751 -0.526,-0.702 -0.766,-1.476 -0.708,-2.267 h -0.008 v -68.943 h 6.298 c -0.155,-0.167 -0.318,-0.329 -0.486,-0.484 z"
   id="path88" />
		<path
   style="fill:#6de0f6"
   d="m 276.06,187.903 c -0.045,0.138 -0.093,0.276 -0.142,0.415 h 7.577 v 68.943 h -0.018 c -0.067,0.924 -0.528,1.869 -1.371,2.746 1.121,-0.989 1.735,-2.088 1.813,-3.161 h 0.018 v -68.943 z"
   id="path89" />
		<polygon
   style="opacity:0.5;fill:#d4088c"
   points="175.595,264.041 184.533,269.201 184.533,189.235 175.595,189.235 "
   id="polygon89" />
		<polygon
   style="opacity:0.3;fill:#d4088c"
   points="187.579,270.96 190.021,272.37 190.021,194.606 187.579,194.606 "
   id="polygon90" />
		<polygon
   style="opacity:0.15;fill:#d4088c"
   points="191.95,273.483 194.392,274.893 194.392,195.545 191.95,195.545 "
   id="polygon91" />
		
			<linearGradient
   id="SVGID_00000000939690439264306820000000577527986017346234_"
   gradientUnits="userSpaceOnUse"
   x1="499.20432"
   y1="791.12732"
   x2="566.32581"
   y2="732.99829"
   gradientTransform="matrix(0.866,0.5,-1,0.5774,525.0016,-518.4943)">
			<stop
   offset="0"
   style="stop-color:#267FE5"
   id="stop91" />
			<stop
   offset="0.1699"
   style="stop-color:#2C87E7"
   id="stop92" />
			<stop
   offset="0.441"
   style="stop-color:#3D9FEB"
   id="stop93" />
			<stop
   offset="0.7773"
   style="stop-color:#59C4F2"
   id="stop94" />
			<stop
   offset="1"
   style="stop-color:#6EE1F8"
   id="stop95" />
		</linearGradient>
		<path
   style="fill:url(#SVGID_00000000939690439264306820000000577527986017346234_)"
   d="M 219.149,220.245 169.52,191.591 c -3.529,-2.037 -3.086,-5.596 0.988,-7.948 l 47.651,-27.511 c 4.075,-2.352 10.238,-2.608 13.767,-0.571 l 49.629,28.654 c 3.529,2.037 3.086,5.596 -0.988,7.948 l -47.651,27.511 c -4.074,2.353 -10.238,2.608 -13.767,0.571 z"
   id="path95" />
		<path
   style="fill:#6de0f6"
   d="m 219.695,220.245 -49.629,-28.653 c -3.529,-2.037 -3.086,-5.596 0.988,-7.948 l 47.651,-27.511 c 2.018,-1.165 4.549,-1.813 7.019,-1.925 -2.64,0.034 -5.396,0.673 -7.565,1.925 l -47.651,27.511 c -4.075,2.352 -4.517,5.911 -0.988,7.948 l 49.629,28.653 c 1.781,1.028 4.232,1.469 6.748,1.354 -2.32,0.031 -4.551,-0.401 -6.202,-1.354 z"
   id="path96" />
		<path
   style="fill:#6de0f6"
   d="m 281.555,184.215 -49.629,-28.654 c -1.783,-1.03 -4.24,-1.469 -6.76,-1.353 2.292,-0.019 4.492,0.411 6.124,1.353 l 49.629,28.654 c 3.529,2.037 3.086,5.596 -0.988,7.948 l -47.651,27.511 c -2.015,1.164 -4.542,1.81 -7.008,1.924 2.664,-0.022 5.453,-0.659 7.643,-1.924 l 47.651,-27.511 c 4.075,-2.352 4.518,-5.911 0.989,-7.948 z"
   id="path97" />
		<path
   style="fill:#6de0f6"
   d="m 225.232,213.172 c -1.701,0 -3.324,-0.343 -4.536,-1.042 l -36.949,-21.332 c -1.199,-0.692 -1.859,-1.658 -1.859,-2.719 0,-1.269 0.946,-2.544 2.595,-3.496 l 35.476,-20.482 c 3.076,-1.777 7.75,-1.966 10.42,-0.425 l 36.949,21.332 c 1.199,0.692 1.859,1.658 1.859,2.719 0,1.269 -0.946,2.544 -2.595,3.496 l -35.476,20.482 c -1.68,0.97 -3.837,1.467 -5.884,1.467 z m 0.611,-50.201 c -1.985,0 -4.08,0.484 -5.714,1.427 l -35.476,20.482 c -1.54,0.889 -2.424,2.056 -2.424,3.199 0,0.934 0.599,1.794 1.688,2.422 l 36.949,21.332 c 2.576,1.488 7.097,1.297 10.079,-0.425 l 35.476,-20.482 c 1.54,-0.889 2.424,-2.056 2.424,-3.199 0,-0.934 -0.6,-1.794 -1.688,-2.422 l -36.949,-21.332 c -1.164,-0.673 -2.727,-1.002 -4.365,-1.002 z"
   id="path98" />
		<g
   id="g117">
			<g
   id="g100">
				<path
   style="fill:#6de0f6"
   d="m 234.332,225.138 41.981,-24.283 c 0.384,-0.222 0.695,-0.816 0.695,-1.329 v -0.689 c 0,-0.512 -0.311,-0.747 -0.695,-0.526 l -41.981,24.283 c -0.384,0.222 -0.695,0.816 -0.695,1.329 v 0.689 c -0.001,0.513 0.311,0.748 0.695,0.526 z"
   id="path99" />
				<path
   style="fill:#267fe5"
   d="m 275.394,200.33 c 0.384,-0.222 0.695,-0.817 0.695,-1.329 v -0.56 l 0.224,-0.129 c 0.384,-0.222 0.695,0.014 0.695,0.526 v 0.689 c 0,0.512 -0.311,1.107 -0.695,1.329 l -41.982,24.283 c -0.384,0.222 -0.695,-0.014 -0.695,-0.526 v -0.129 z"
   id="path100" />
			</g>
			<g
   id="g102">
				<path
   style="fill:#6de0f6"
   d="m 234.332,232.527 41.981,-24.283 c 0.384,-0.222 0.695,-0.816 0.695,-1.328 v -0.689 c 0,-0.512 -0.311,-0.747 -0.695,-0.526 l -41.981,24.283 c -0.384,0.222 -0.695,0.816 -0.695,1.329 v 0.689 c -0.001,0.511 0.311,0.746 0.695,0.525 z"
   id="path101" />
				<path
   style="fill:#267fe5"
   d="m 275.394,207.719 c 0.384,-0.222 0.695,-0.817 0.695,-1.329 v -0.56 l 0.224,-0.129 c 0.384,-0.222 0.695,0.014 0.695,0.526 v 0.689 c 0,0.512 -0.311,1.107 -0.695,1.329 l -41.982,24.283 c -0.384,0.222 -0.695,-0.014 -0.695,-0.526 v -0.129 z"
   id="path102" />
			</g>
			<g
   id="g104">
				<path
   style="fill:#6de0f6"
   d="m 234.332,239.915 41.981,-24.283 c 0.384,-0.222 0.695,-0.816 0.695,-1.328 v -0.689 c 0,-0.512 -0.311,-0.747 -0.695,-0.526 l -41.981,24.283 c -0.384,0.222 -0.695,0.817 -0.695,1.329 v 0.689 c -0.001,0.511 0.311,0.747 0.695,0.525 z"
   id="path103" />
				<path
   style="fill:#267fe5"
   d="m 275.394,215.107 c 0.384,-0.222 0.695,-0.817 0.695,-1.329 v -0.56 l 0.224,-0.129 c 0.384,-0.222 0.695,0.014 0.695,0.526 v 0.689 c 0,0.512 -0.311,1.107 -0.695,1.329 l -41.982,24.283 c -0.384,0.222 -0.695,-0.014 -0.695,-0.526 v -0.129 z"
   id="path104" />
			</g>
			<g
   id="g106">
				<path
   style="fill:#6de0f6"
   d="m 234.332,247.303 41.981,-24.283 c 0.384,-0.222 0.695,-0.817 0.695,-1.329 v -0.689 c 0,-0.512 -0.311,-0.747 -0.695,-0.526 l -41.981,24.283 c -0.384,0.222 -0.695,0.816 -0.695,1.328 v 0.689 c -0.001,0.514 0.311,0.749 0.695,0.527 z"
   id="path105" />
				<path
   style="fill:#267fe5"
   d="m 275.394,222.496 c 0.384,-0.222 0.695,-0.817 0.695,-1.329 v -0.56 l 0.224,-0.129 c 0.384,-0.222 0.695,0.014 0.695,0.526 v 0.689 c 0,0.512 -0.311,1.107 -0.695,1.329 l -41.982,24.283 c -0.384,0.222 -0.695,-0.014 -0.695,-0.526 v -0.129 z"
   id="path106" />
			</g>
			<g
   id="g108">
				<path
   style="fill:#6de0f6"
   d="m 234.332,254.692 41.981,-24.283 c 0.384,-0.222 0.695,-0.816 0.695,-1.329 v -0.689 c 0,-0.512 -0.311,-0.747 -0.695,-0.526 l -41.981,24.283 c -0.384,0.222 -0.695,0.816 -0.695,1.328 v 0.689 c -0.001,0.513 0.311,0.748 0.695,0.527 z"
   id="path107" />
				<path
   style="fill:#267fe5"
   d="m 275.394,229.884 c 0.384,-0.222 0.695,-0.817 0.695,-1.329 v -0.56 l 0.224,-0.129 c 0.384,-0.222 0.695,0.014 0.695,0.526 v 0.689 c 0,0.512 -0.311,1.107 -0.695,1.329 l -41.982,24.283 c -0.384,0.222 -0.695,-0.014 -0.695,-0.526 v -0.129 z"
   id="path108" />
			</g>
			<g
   id="g110">
				<path
   style="fill:#6de0f6"
   d="m 234.332,262.08 41.981,-24.283 c 0.384,-0.222 0.695,-0.816 0.695,-1.329 v -0.689 c 0,-0.512 -0.311,-0.747 -0.695,-0.526 l -41.981,24.283 c -0.384,0.222 -0.695,0.816 -0.695,1.328 v 0.689 c -0.001,0.514 0.311,0.749 0.695,0.527 z"
   id="path109" />
				<path
   style="fill:#267fe5"
   d="m 275.394,237.272 c 0.384,-0.222 0.695,-0.817 0.695,-1.329 v -0.56 l 0.224,-0.129 c 0.384,-0.222 0.695,0.014 0.695,0.526 v 0.689 c 0,0.512 -0.311,1.107 -0.695,1.329 l -41.982,24.283 c -0.384,0.222 -0.695,-0.014 -0.695,-0.526 v -0.129 z"
   id="path110" />
			</g>
			<g
   id="g112">
				<path
   style="fill:#6de0f6"
   d="m 234.332,269.469 41.981,-24.283 c 0.384,-0.222 0.695,-0.816 0.695,-1.328 v -0.689 c 0,-0.512 -0.311,-0.747 -0.695,-0.526 l -41.981,24.283 c -0.384,0.222 -0.695,0.816 -0.695,1.328 v 0.689 c -0.001,0.512 0.311,0.747 0.695,0.526 z"
   id="path111" />
				<path
   style="fill:#267fe5"
   d="m 275.394,244.661 c 0.384,-0.222 0.695,-0.817 0.695,-1.329 v -0.56 l 0.224,-0.129 c 0.384,-0.222 0.695,0.014 0.695,0.526 v 0.689 c 0,0.512 -0.311,1.107 -0.695,1.329 l -41.982,24.283 c -0.384,0.222 -0.695,-0.014 -0.695,-0.526 v -0.129 z"
   id="path112" />
			</g>
			<g
   id="g114">
				<path
   style="fill:#6de0f6"
   d="m 234.332,276.857 41.981,-24.283 c 0.384,-0.222 0.695,-0.816 0.695,-1.328 v -0.689 c 0,-0.512 -0.311,-0.747 -0.695,-0.526 l -41.981,24.283 c -0.384,0.222 -0.695,0.816 -0.695,1.328 v 0.689 c -0.001,0.512 0.311,0.748 0.695,0.526 z"
   id="path113" />
				<path
   style="fill:#267fe5"
   d="m 275.394,252.049 c 0.384,-0.222 0.695,-0.817 0.695,-1.329 v -0.56 l 0.224,-0.129 c 0.384,-0.222 0.695,0.014 0.695,0.526 v 0.689 c 0,0.512 -0.311,1.107 -0.695,1.329 l -41.982,24.283 c -0.384,0.222 -0.695,-0.014 -0.695,-0.526 v -0.129 z"
   id="path114" />
			</g>
			<g
   id="g116">
				<path
   style="fill:#6de0f6"
   d="m 234.332,284.245 41.981,-24.283 c 0.384,-0.222 0.695,-0.816 0.695,-1.329 v -0.689 c 0,-0.512 -0.311,-0.747 -0.695,-0.526 l -41.981,24.283 c -0.384,0.222 -0.695,0.816 -0.695,1.329 v 0.689 c -0.001,0.513 0.311,0.748 0.695,0.526 z"
   id="path115" />
				<path
   style="fill:#267fe5"
   d="m 275.394,259.438 c 0.384,-0.222 0.695,-0.817 0.695,-1.329 v -0.56 l 0.224,-0.129 c 0.384,-0.222 0.695,0.014 0.695,0.526 v 0.689 c 0,0.512 -0.311,1.107 -0.695,1.329 l -41.982,24.283 c -0.384,0.222 -0.695,-0.014 -0.695,-0.526 v -0.129 z"
   id="path116" />
			</g>
		</g>
		<g
   id="g127">
			<g
   id="g118">
				<circle
   style="fill:#6de0f6"
   cx="225.53799"
   cy="226.34"
   r="1.127"
   id="circle117" />
				<path
   style="fill:#267fe5"
   d="m 225.538,227.044 c -0.55,0 -1.006,-0.394 -1.106,-0.915 -0.013,0.069 -0.021,0.139 -0.021,0.211 0,0.622 0.505,1.127 1.127,1.127 0.622,0 1.127,-0.505 1.127,-1.127 0,-0.072 -0.008,-0.143 -0.021,-0.211 -0.1,0.521 -0.557,0.915 -1.106,0.915 z"
   id="path117" />
			</g>
			<g
   id="g119">
				<circle
   style="fill:#6de0f6"
   cx="225.53799"
   cy="233.728"
   r="1.127"
   id="circle118" />
				<path
   style="fill:#267fe5"
   d="m 225.538,234.432 c -0.55,0 -1.006,-0.394 -1.106,-0.915 -0.013,0.069 -0.021,0.139 -0.021,0.211 0,0.622 0.505,1.127 1.127,1.127 0.622,0 1.127,-0.505 1.127,-1.127 0,-0.072 -0.008,-0.143 -0.021,-0.211 -0.1,0.521 -0.557,0.915 -1.106,0.915 z"
   id="path118" />
			</g>
			<g
   id="g120">
				<circle
   style="fill:#6de0f6"
   cx="225.53799"
   cy="241.117"
   r="1.127"
   id="circle119" />
				<path
   style="fill:#267fe5"
   d="m 225.538,241.821 c -0.55,0 -1.006,-0.394 -1.106,-0.916 -0.013,0.069 -0.021,0.139 -0.021,0.211 0,0.622 0.505,1.127 1.127,1.127 0.622,0 1.127,-0.505 1.127,-1.127 0,-0.072 -0.008,-0.143 -0.021,-0.211 -0.1,0.521 -0.557,0.916 -1.106,0.916 z"
   id="path119" />
			</g>
			<g
   id="g121">
				<circle
   style="fill:#6de0f6"
   cx="225.53799"
   cy="248.505"
   r="1.127"
   id="circle120" />
				<path
   style="fill:#267fe5"
   d="m 225.538,249.209 c -0.55,0 -1.006,-0.394 -1.106,-0.916 -0.013,0.069 -0.021,0.139 -0.021,0.211 0,0.622 0.505,1.127 1.127,1.127 0.622,0 1.127,-0.505 1.127,-1.127 0,-0.072 -0.008,-0.143 -0.021,-0.211 -0.1,0.522 -0.557,0.916 -1.106,0.916 z"
   id="path120" />
			</g>
			<g
   id="g122">
				<circle
   style="fill:#6de0f6"
   cx="225.53799"
   cy="255.89301"
   r="1.127"
   id="circle121" />
				<path
   style="fill:#267fe5"
   d="m 225.538,256.598 c -0.55,0 -1.006,-0.394 -1.106,-0.915 -0.013,0.069 -0.021,0.139 -0.021,0.211 0,0.622 0.505,1.127 1.127,1.127 0.622,0 1.127,-0.504 1.127,-1.127 0,-0.072 -0.008,-0.143 -0.021,-0.211 -0.1,0.52 -0.557,0.915 -1.106,0.915 z"
   id="path121" />
			</g>
			<g
   id="g123">
				<circle
   style="fill:#6de0f6"
   cx="225.53799"
   cy="263.28201"
   r="1.127"
   id="circle122" />
				<path
   style="fill:#267fe5"
   d="m 225.538,263.986 c -0.55,0 -1.006,-0.394 -1.106,-0.916 -0.013,0.069 -0.021,0.139 -0.021,0.211 0,0.622 0.505,1.127 1.127,1.127 0.622,0 1.127,-0.504 1.127,-1.127 0,-0.072 -0.008,-0.143 -0.021,-0.211 -0.1,0.522 -0.557,0.916 -1.106,0.916 z"
   id="path122" />
			</g>
			<g
   id="g124">
				<circle
   style="fill:#6de0f6"
   cx="225.53799"
   cy="270.67001"
   r="1.127"
   id="circle123" />
				<path
   style="fill:#267fe5"
   d="m 225.538,271.375 c -0.55,0 -1.006,-0.394 -1.106,-0.915 -0.013,0.069 -0.021,0.139 -0.021,0.211 0,0.622 0.505,1.127 1.127,1.127 0.622,0 1.127,-0.504 1.127,-1.127 0,-0.072 -0.008,-0.143 -0.021,-0.211 -0.1,0.52 -0.557,0.915 -1.106,0.915 z"
   id="path123" />
			</g>
			<g
   id="g125">
				<circle
   style="fill:#6de0f6"
   cx="225.53799"
   cy="278.05899"
   r="1.127"
   id="circle124" />
				<path
   style="fill:#267fe5"
   d="m 225.538,278.763 c -0.55,0 -1.006,-0.394 -1.106,-0.915 -0.013,0.069 -0.021,0.139 -0.021,0.211 0,0.622 0.505,1.127 1.127,1.127 0.622,0 1.127,-0.504 1.127,-1.127 0,-0.072 -0.008,-0.143 -0.021,-0.211 -0.1,0.52 -0.557,0.915 -1.106,0.915 z"
   id="path124" />
			</g>
			<g
   id="g126">
				<circle
   style="fill:#6de0f6"
   cx="225.53799"
   cy="285.44699"
   r="1.127"
   id="circle125" />
				<path
   style="fill:#267fe5"
   d="m 225.538,286.151 c -0.55,0 -1.006,-0.394 -1.106,-0.915 -0.013,0.069 -0.021,0.139 -0.021,0.211 0,0.622 0.505,1.127 1.127,1.127 0.622,0 1.127,-0.505 1.127,-1.127 0,-0.072 -0.008,-0.143 -0.021,-0.211 -0.1,0.521 -0.557,0.915 -1.106,0.915 z"
   id="path125" />
			</g>
		</g>
	</g>
	<g
   id="g130">
		<g
   id="g129">
			<path
   style="fill:#161242"
   d="m 209.427,274.641 c -0.225,0 -0.467,-0.071 -0.711,-0.212 l -1.68,-0.97 c -0.914,-0.527 -1.658,-1.941 -1.658,-3.152 v -45.346 c 0,-0.672 0.229,-1.189 0.629,-1.42 0.341,-0.197 0.767,-0.166 1.2,0.083 l 1.68,0.97 c 0.914,0.528 1.658,1.942 1.658,3.152 v 45.347 c 0,0.672 -0.229,1.189 -0.629,1.42 -0.149,0.085 -0.314,0.128 -0.489,0.128 z m -2.93,-50.885 c -0.117,0 -0.224,0.027 -0.319,0.082 -0.291,0.168 -0.458,0.577 -0.458,1.123 v 45.346 c 0,1.101 0.667,2.382 1.486,2.855 l 1.68,0.97 c 0.322,0.186 0.626,0.216 0.857,0.083 0.291,-0.168 0.458,-0.577 0.458,-1.123 v -45.347 c 0,-1.101 -0.667,-2.382 -1.486,-2.855 l -1.68,-0.97 c -0.189,-0.109 -0.373,-0.164 -0.538,-0.164 z"
   id="path128" />
		</g>
	</g>
</g>
<g
   id="g183"
   transform="translate(-42.54715,-49.510309)">
	<g
   id="g180">
		<path
   style="fill:#0c0f38"
   d="m 376.416,305.181 -48.485,-27.993 c -3.447,-1.99 -3.015,-5.467 0.966,-7.765 l 46.552,-26.877 c 3.981,-2.298 10.002,-2.548 13.45,-0.557 l 48.485,27.993 c 3.447,1.99 3.015,5.467 -0.966,7.765 l -46.552,26.877 c -3.981,2.298 -10.003,2.548 -13.45,0.557 z"
   id="path131" />
		
			<linearGradient
   id="SVGID_00000016759366393687170320000006334458904988884379_"
   gradientUnits="userSpaceOnUse"
   x1="313.2149"
   y1="229.3286"
   x2="455.51129"
   y2="229.3286">
			<stop
   offset="0"
   style="stop-color:#A31FA9"
   id="stop131" />
			<stop
   offset="0.0668"
   style="stop-color:#8B17A0"
   id="stop132" />
			<stop
   offset="0.1494"
   style="stop-color:#740F98"
   id="stop133" />
			<stop
   offset="0.2393"
   style="stop-color:#640A92"
   id="stop134" />
			<stop
   offset="0.3408"
   style="stop-color:#5B078F"
   id="stop135" />
			<stop
   offset="0.4785"
   style="stop-color:#58068E"
   id="stop136" />
			<stop
   offset="0.6264"
   style="stop-color:#4D22A3"
   id="stop137" />
			<stop
   offset="0.9436"
   style="stop-color:#3168DA"
   id="stop138" />
			<stop
   offset="1"
   style="stop-color:#2C75E4"
   id="stop139" />
		</linearGradient>
		<path
   style="fill:url(#SVGID_00000016759366393687170320000006334458904988884379_)"
   d="m 441.057,186.595 h -24.613 l -27.399,-15.819 c -3.529,-2.037 -9.692,-1.782 -13.767,0.571 l -26.41,15.248 h -24.601 v 68.943 h 0.008 c -0.1,1.379 0.669,2.709 2.364,3.688 l 49.629,28.654 c 3.529,2.037 9.692,1.782 13.767,-0.571 l 47.651,-27.511 c 2.117,-1.222 3.244,-2.769 3.352,-4.26 h 0.018 v -68.943 z"
   id="path139" />
		<path
   style="fill:#d4088c"
   d="m 330.5,186.595 h -6.233 v 68.943 h 0.008 c -0.071,0.978 0.305,1.93 1.129,2.751 -0.527,-0.703 -0.766,-1.476 -0.708,-2.267 h -0.008 v -68.943 h 6.298 c -0.155,-0.167 -0.318,-0.329 -0.486,-0.484 z"
   id="path140" />
		<path
   style="fill:#6de0f6"
   d="m 433.179,186.595 c -0.045,0.138 -0.093,0.276 -0.141,0.415 h 7.577 v 68.943 h -0.018 c -0.067,0.924 -0.528,1.869 -1.371,2.746 1.121,-0.989 1.735,-2.088 1.813,-3.16 h 0.018 v -68.943 h -7.878 z"
   id="path141" />
		<polygon
   style="opacity:0.5;fill:#d4088c"
   points="332.714,262.733 341.652,267.893 341.652,187.927 332.714,187.927 "
   id="polygon141" />
		<polygon
   style="opacity:0.3;fill:#d4088c"
   points="344.699,269.652 347.141,271.062 347.141,193.298 344.699,193.298 "
   id="polygon142" />
		<polygon
   style="opacity:0.15;fill:#d4088c"
   points="349.069,272.176 351.511,273.586 351.511,194.237 349.069,194.237 "
   id="polygon143" />
		
			<linearGradient
   id="SVGID_00000097466975835320760720000009430544430036329093_"
   gradientUnits="userSpaceOnUse"
   x1="588.61462"
   y1="711.43707"
   x2="655.73608"
   y2="653.30823"
   gradientTransform="matrix(0.866,0.5,-1,0.5774,525.0016,-518.4943)">
			<stop
   offset="0"
   style="stop-color:#267FE5"
   id="stop143" />
			<stop
   offset="0.1699"
   style="stop-color:#2C87E7"
   id="stop144" />
			<stop
   offset="0.441"
   style="stop-color:#3D9FEB"
   id="stop145" />
			<stop
   offset="0.7773"
   style="stop-color:#59C4F2"
   id="stop146" />
			<stop
   offset="1"
   style="stop-color:#6EE1F8"
   id="stop147" />
		</linearGradient>
		<path
   style="fill:url(#SVGID_00000097466975835320760720000009430544430036329093_)"
   d="M 376.269,218.937 326.64,190.284 c -3.529,-2.037 -3.086,-5.596 0.988,-7.948 l 47.651,-27.511 c 4.075,-2.353 10.238,-2.608 13.767,-0.571 l 49.629,28.654 c 3.529,2.037 3.086,5.596 -0.988,7.948 l -47.651,27.511 c -4.075,2.352 -10.239,2.608 -13.767,0.57 z"
   id="path147" />
		<path
   style="fill:#6de0f6"
   d="m 376.815,218.937 -49.629,-28.654 c -3.529,-2.037 -3.086,-5.596 0.988,-7.948 l 47.651,-27.511 c 2.018,-1.165 4.549,-1.813 7.019,-1.925 -2.64,0.034 -5.396,0.673 -7.565,1.925 l -47.651,27.511 c -4.075,2.352 -4.517,5.911 -0.988,7.948 l 49.629,28.654 c 1.781,1.028 4.232,1.469 6.748,1.354 -2.32,0.031 -4.552,-0.401 -6.202,-1.354 z"
   id="path148" />
		<path
   style="fill:#6de0f6"
   d="m 438.675,182.907 -49.629,-28.654 c -1.783,-1.03 -4.24,-1.469 -6.759,-1.353 2.292,-0.019 4.492,0.411 6.124,1.353 l 49.629,28.654 c 3.529,2.037 3.086,5.596 -0.988,7.948 L 389.4,218.367 c -2.015,1.164 -4.542,1.81 -7.008,1.924 2.664,-0.022 5.453,-0.659 7.643,-1.924 l 47.651,-27.511 c 4.075,-2.353 4.517,-5.912 0.989,-7.949 z"
   id="path149" />
		<path
   style="fill:#6de0f6"
   d="m 382.352,211.864 c -1.701,0 -3.324,-0.343 -4.536,-1.042 L 340.867,189.49 c -1.199,-0.692 -1.859,-1.658 -1.859,-2.719 0,-1.269 0.946,-2.543 2.595,-3.496 l 35.476,-20.482 c 3.076,-1.777 7.75,-1.966 10.42,-0.425 l 36.949,21.332 c 1.199,0.692 1.859,1.658 1.859,2.719 0,1.269 -0.946,2.544 -2.595,3.496 l -35.476,20.482 c -1.68,0.97 -3.838,1.467 -5.884,1.467 z m 0.611,-50.201 c -1.985,0 -4.08,0.483 -5.714,1.427 l -35.476,20.482 c -1.54,0.889 -2.424,2.056 -2.424,3.199 0,0.934 0.599,1.794 1.688,2.422 l 36.949,21.332 c 2.576,1.488 7.097,1.297 10.079,-0.425 l 35.476,-20.482 c 1.54,-0.889 2.424,-2.056 2.424,-3.199 0,-0.934 -0.6,-1.794 -1.688,-2.422 l -36.949,-21.332 c -1.165,-0.673 -2.727,-1.002 -4.365,-1.002 z"
   id="path150" />
		<g
   id="g169">
			<g
   id="g152">
				<path
   style="fill:#6de0f6"
   d="m 391.451,223.83 41.982,-24.283 c 0.384,-0.222 0.695,-0.816 0.695,-1.329 v -0.689 c 0,-0.512 -0.311,-0.747 -0.695,-0.526 l -41.982,24.283 c -0.384,0.222 -0.695,0.817 -0.695,1.329 v 0.689 c 0,0.513 0.311,0.748 0.695,0.526 z"
   id="path151" />
				<path
   style="fill:#267fe5"
   d="m 432.514,199.023 c 0.384,-0.222 0.695,-0.817 0.695,-1.329 v -0.56 l 0.224,-0.129 c 0.384,-0.222 0.695,0.014 0.695,0.526 v 0.689 c 0,0.512 -0.311,1.107 -0.695,1.329 l -41.982,24.283 c -0.384,0.222 -0.695,-0.014 -0.695,-0.526 v -0.129 z"
   id="path152" />
			</g>
			<g
   id="g154">
				<path
   style="fill:#6de0f6"
   d="m 391.451,231.219 41.982,-24.283 c 0.384,-0.222 0.695,-0.816 0.695,-1.329 v -0.689 c 0,-0.512 -0.311,-0.747 -0.695,-0.526 l -41.982,24.283 c -0.384,0.222 -0.695,0.817 -0.695,1.329 v 0.689 c 0,0.512 0.311,0.747 0.695,0.526 z"
   id="path153" />
				<path
   style="fill:#267fe5"
   d="m 432.514,206.411 c 0.384,-0.222 0.695,-0.817 0.695,-1.329 v -0.56 l 0.224,-0.129 c 0.384,-0.222 0.695,0.014 0.695,0.526 v 0.689 c 0,0.512 -0.311,1.107 -0.695,1.329 l -41.982,24.283 c -0.384,0.222 -0.695,-0.014 -0.695,-0.526 v -0.129 z"
   id="path154" />
			</g>
			<g
   id="g156">
				<path
   style="fill:#6de0f6"
   d="m 391.451,238.607 41.982,-24.283 c 0.384,-0.222 0.695,-0.816 0.695,-1.329 v -0.689 c 0,-0.512 -0.311,-0.747 -0.695,-0.526 l -41.982,24.283 c -0.384,0.222 -0.695,0.817 -0.695,1.329 v 0.689 c 0,0.513 0.311,0.748 0.695,0.526 z"
   id="path155" />
				<path
   style="fill:#267fe5"
   d="m 432.514,213.799 c 0.384,-0.222 0.695,-0.817 0.695,-1.329 v -0.56 l 0.224,-0.129 c 0.384,-0.222 0.695,0.014 0.695,0.526 v 0.689 c 0,0.512 -0.311,1.107 -0.695,1.329 l -41.982,24.283 c -0.384,0.222 -0.695,-0.014 -0.695,-0.526 v -0.129 z"
   id="path156" />
			</g>
			<g
   id="g158">
				<path
   style="fill:#6de0f6"
   d="m 391.451,245.995 41.982,-24.283 c 0.384,-0.222 0.695,-0.817 0.695,-1.329 v -0.689 c 0,-0.512 -0.311,-0.747 -0.695,-0.526 l -41.982,24.283 c -0.384,0.222 -0.695,0.817 -0.695,1.329 v 0.689 c 0,0.513 0.311,0.748 0.695,0.526 z"
   id="path157" />
				<path
   style="fill:#267fe5"
   d="m 432.514,221.188 c 0.384,-0.222 0.695,-0.817 0.695,-1.329 v -0.56 l 0.224,-0.129 c 0.384,-0.222 0.695,0.014 0.695,0.526 v 0.689 c 0,0.512 -0.311,1.107 -0.695,1.329 l -41.982,24.283 c -0.384,0.222 -0.695,-0.014 -0.695,-0.526 v -0.129 z"
   id="path158" />
			</g>
			<g
   id="g160">
				<path
   style="fill:#6de0f6"
   d="m 391.451,253.384 41.982,-24.283 c 0.384,-0.222 0.695,-0.817 0.695,-1.329 v -0.689 c 0,-0.512 -0.311,-0.747 -0.695,-0.526 l -41.982,24.283 c -0.384,0.222 -0.695,0.817 -0.695,1.329 v 0.689 c 0,0.512 0.311,0.748 0.695,0.526 z"
   id="path159" />
				<path
   style="fill:#267fe5"
   d="m 432.514,228.576 c 0.384,-0.222 0.695,-0.817 0.695,-1.329 v -0.56 l 0.224,-0.129 c 0.384,-0.222 0.695,0.014 0.695,0.526 v 0.689 c 0,0.512 -0.311,1.107 -0.695,1.329 l -41.982,24.283 c -0.384,0.222 -0.695,-0.014 -0.695,-0.526 v -0.129 z"
   id="path160" />
			</g>
			<g
   id="g162">
				<path
   style="fill:#6de0f6"
   d="m 391.451,260.772 41.982,-24.283 c 0.384,-0.222 0.695,-0.817 0.695,-1.329 v -0.689 c 0,-0.512 -0.311,-0.747 -0.695,-0.526 l -41.982,24.283 c -0.384,0.222 -0.695,0.817 -0.695,1.329 v 0.689 c 0,0.513 0.311,0.748 0.695,0.526 z"
   id="path161" />
				<path
   style="fill:#267fe5"
   d="m 432.514,235.964 c 0.384,-0.222 0.695,-0.817 0.695,-1.329 v -0.56 l 0.224,-0.129 c 0.384,-0.222 0.695,0.014 0.695,0.526 v 0.689 c 0,0.512 -0.311,1.107 -0.695,1.329 l -41.982,24.283 c -0.384,0.222 -0.695,-0.014 -0.695,-0.526 v -0.129 z"
   id="path162" />
			</g>
			<g
   id="g164">
				<path
   style="fill:#6de0f6"
   d="m 391.451,268.161 41.982,-24.283 c 0.384,-0.222 0.695,-0.817 0.695,-1.329 v -0.689 c 0,-0.512 -0.311,-0.747 -0.695,-0.526 l -41.982,24.283 c -0.384,0.222 -0.695,0.817 -0.695,1.329 v 0.689 c 0,0.512 0.311,0.747 0.695,0.526 z"
   id="path163" />
				<path
   style="fill:#267fe5"
   d="m 432.514,243.353 c 0.384,-0.222 0.695,-0.817 0.695,-1.329 v -0.56 l 0.224,-0.129 c 0.384,-0.222 0.695,0.014 0.695,0.526 v 0.689 c 0,0.512 -0.311,1.107 -0.695,1.329 l -41.982,24.283 c -0.384,0.222 -0.695,-0.014 -0.695,-0.526 v -0.129 z"
   id="path164" />
			</g>
			<g
   id="g166">
				<path
   style="fill:#6de0f6"
   d="m 391.451,275.549 41.982,-24.283 c 0.384,-0.222 0.695,-0.817 0.695,-1.329 v -0.689 c 0,-0.512 -0.311,-0.747 -0.695,-0.526 l -41.982,24.283 c -0.384,0.222 -0.695,0.817 -0.695,1.329 v 0.689 c 0,0.512 0.311,0.748 0.695,0.526 z"
   id="path165" />
				<path
   style="fill:#267fe5"
   d="m 432.514,250.741 c 0.384,-0.222 0.695,-0.817 0.695,-1.329 v -0.56 l 0.224,-0.129 c 0.384,-0.222 0.695,0.014 0.695,0.526 v 0.689 c 0,0.512 -0.311,1.107 -0.695,1.329 l -41.982,24.283 c -0.384,0.222 -0.695,-0.014 -0.695,-0.526 v -0.129 z"
   id="path166" />
			</g>
			<g
   id="g168">
				<path
   style="fill:#6de0f6"
   d="m 391.451,282.938 41.982,-24.283 c 0.384,-0.222 0.695,-0.817 0.695,-1.329 v -0.689 c 0,-0.512 -0.311,-0.747 -0.695,-0.526 l -41.982,24.283 c -0.384,0.222 -0.695,0.817 -0.695,1.329 v 0.689 c 0,0.512 0.311,0.747 0.695,0.526 z"
   id="path167" />
				<path
   style="fill:#267fe5"
   d="m 432.514,258.13 c 0.384,-0.222 0.695,-0.817 0.695,-1.329 v -0.56 l 0.224,-0.129 c 0.384,-0.222 0.695,0.014 0.695,0.526 v 0.689 c 0,0.512 -0.311,1.107 -0.695,1.329 l -41.982,24.283 c -0.384,0.222 -0.695,-0.014 -0.695,-0.526 v -0.129 z"
   id="path168" />
			</g>
		</g>
		<g
   id="g179">
			<g
   id="g170">
				<circle
   style="fill:#6de0f6"
   cx="382.65701"
   cy="225.032"
   r="1.127"
   id="circle169" />
				<path
   style="fill:#267fe5"
   d="m 382.657,225.736 c -0.55,0 -1.006,-0.394 -1.106,-0.916 -0.013,0.069 -0.021,0.139 -0.021,0.211 0,0.622 0.505,1.127 1.127,1.127 0.622,0 1.127,-0.504 1.127,-1.127 0,-0.072 -0.008,-0.143 -0.021,-0.211 -0.1,0.522 -0.556,0.916 -1.106,0.916 z"
   id="path169" />
			</g>
			<g
   id="g171">
				<circle
   style="fill:#6de0f6"
   cx="382.65701"
   cy="232.42"
   r="1.127"
   id="circle170" />
				<path
   style="fill:#267fe5"
   d="m 382.657,233.125 c -0.55,0 -1.006,-0.394 -1.106,-0.915 -0.013,0.069 -0.021,0.139 -0.021,0.211 0,0.622 0.505,1.127 1.127,1.127 0.622,0 1.127,-0.504 1.127,-1.127 0,-0.072 -0.008,-0.143 -0.021,-0.211 -0.1,0.52 -0.556,0.915 -1.106,0.915 z"
   id="path170" />
			</g>
			<g
   id="g172">
				<circle
   style="fill:#6de0f6"
   cx="382.65701"
   cy="239.80901"
   r="1.127"
   id="circle171" />
				<path
   style="fill:#267fe5"
   d="m 382.657,240.513 c -0.55,0 -1.006,-0.395 -1.106,-0.916 -0.013,0.069 -0.021,0.139 -0.021,0.211 0,0.622 0.505,1.127 1.127,1.127 0.622,0 1.127,-0.504 1.127,-1.127 0,-0.072 -0.008,-0.143 -0.021,-0.211 -0.1,0.522 -0.556,0.916 -1.106,0.916 z"
   id="path171" />
			</g>
			<g
   id="g173">
				<circle
   style="fill:#6de0f6"
   cx="382.65701"
   cy="247.19701"
   r="1.127"
   id="circle172" />
				<path
   style="fill:#267fe5"
   d="m 382.657,247.902 c -0.55,0 -1.006,-0.395 -1.106,-0.916 -0.013,0.069 -0.021,0.139 -0.021,0.211 0,0.622 0.505,1.127 1.127,1.127 0.622,0 1.127,-0.504 1.127,-1.127 0,-0.072 -0.008,-0.143 -0.021,-0.211 -0.1,0.521 -0.556,0.916 -1.106,0.916 z"
   id="path172" />
			</g>
			<g
   id="g174">
				<circle
   style="fill:#6de0f6"
   cx="382.65701"
   cy="254.586"
   r="1.127"
   id="circle173" />
				<path
   style="fill:#267fe5"
   d="m 382.657,255.29 c -0.55,0 -1.006,-0.395 -1.106,-0.915 -0.013,0.068 -0.021,0.139 -0.021,0.211 0,0.622 0.505,1.127 1.127,1.127 0.622,0 1.127,-0.504 1.127,-1.127 0,-0.072 -0.008,-0.143 -0.021,-0.211 -0.1,0.52 -0.556,0.915 -1.106,0.915 z"
   id="path173" />
			</g>
			<g
   id="g175">
				<circle
   style="fill:#6de0f6"
   cx="382.65701"
   cy="261.974"
   r="1.127"
   id="circle174" />
				<path
   style="fill:#267fe5"
   d="m 382.657,262.678 c -0.55,0 -1.006,-0.395 -1.106,-0.916 -0.013,0.069 -0.021,0.139 -0.021,0.211 0,0.622 0.505,1.127 1.127,1.127 0.622,0 1.127,-0.504 1.127,-1.127 0,-0.072 -0.008,-0.143 -0.021,-0.211 -0.1,0.522 -0.556,0.916 -1.106,0.916 z"
   id="path174" />
			</g>
			<g
   id="g176">
				<circle
   style="fill:#6de0f6"
   cx="382.65701"
   cy="269.362"
   r="1.127"
   id="circle175" />
				<path
   style="fill:#267fe5"
   d="m 382.657,270.067 c -0.55,0 -1.006,-0.395 -1.106,-0.915 -0.013,0.068 -0.021,0.139 -0.021,0.211 0,0.622 0.505,1.127 1.127,1.127 0.622,0 1.127,-0.504 1.127,-1.127 0,-0.072 -0.008,-0.143 -0.021,-0.211 -0.1,0.52 -0.556,0.915 -1.106,0.915 z"
   id="path175" />
			</g>
			<g
   id="g177">
				<circle
   style="fill:#6de0f6"
   cx="382.65701"
   cy="276.75101"
   r="1.127"
   id="circle176" />
				<path
   style="fill:#267fe5"
   d="m 382.657,277.455 c -0.55,0 -1.006,-0.395 -1.106,-0.915 -0.013,0.068 -0.021,0.139 -0.021,0.211 0,0.622 0.505,1.127 1.127,1.127 0.622,0 1.127,-0.504 1.127,-1.127 0,-0.072 -0.008,-0.143 -0.021,-0.211 -0.1,0.521 -0.556,0.915 -1.106,0.915 z"
   id="path176" />
			</g>
			<g
   id="g178">
				<circle
   style="fill:#6de0f6"
   cx="382.65701"
   cy="284.13901"
   r="1.127"
   id="circle177" />
				<path
   style="fill:#267fe5"
   d="m 382.657,284.844 c -0.55,0 -1.006,-0.395 -1.106,-0.915 -0.013,0.068 -0.021,0.139 -0.021,0.211 0,0.622 0.505,1.127 1.127,1.127 0.622,0 1.127,-0.504 1.127,-1.127 0,-0.072 -0.008,-0.143 -0.021,-0.211 -0.1,0.52 -0.556,0.915 -1.106,0.915 z"
   id="path177" />
			</g>
		</g>
	</g>
	<g
   id="g182">
		<g
   id="g181">
			<path
   style="fill:#161242"
   d="m 366.546,273.333 c -0.225,0 -0.467,-0.071 -0.711,-0.212 l -1.68,-0.97 c -0.914,-0.527 -1.658,-1.941 -1.658,-3.152 v -45.346 c 0,-0.672 0.229,-1.189 0.629,-1.42 0.341,-0.197 0.767,-0.166 1.2,0.083 l 1.681,0.97 c 0.914,0.528 1.658,1.942 1.658,3.152 v 45.346 c 0,0.672 -0.229,1.189 -0.629,1.42 -0.149,0.086 -0.315,0.129 -0.49,0.129 z m -2.93,-50.885 c -0.117,0 -0.224,0.027 -0.319,0.082 -0.291,0.168 -0.458,0.577 -0.458,1.123 V 269 c 0,1.101 0.667,2.382 1.486,2.855 l 1.681,0.97 c 0.322,0.186 0.626,0.215 0.858,0.083 0.291,-0.168 0.458,-0.577 0.458,-1.123 v -45.346 c 0,-1.101 -0.667,-2.382 -1.486,-2.855 l -1.68,-0.97 c -0.191,-0.111 -0.374,-0.166 -0.54,-0.166 z"
   id="path180" />
		</g>
	</g>
</g>
<g
   id="g235"
   transform="translate(-42.54715,-49.510309)">
	<g
   id="g232">
		<path
   style="fill:#0c0f38"
   d="m 297.856,353.358 -48.485,-27.993 c -3.447,-1.99 -3.015,-5.467 0.966,-7.765 l 46.552,-26.877 c 3.981,-2.298 10.002,-2.548 13.449,-0.557 l 48.485,27.993 c 3.447,1.99 3.015,5.467 -0.966,7.765 L 311.306,352.8 c -3.981,2.298 -10.002,2.548 -13.45,0.558 z"
   id="path183" />
		
			<linearGradient
   id="SVGID_00000046337472772949267270000001812225939771823030_"
   gradientUnits="userSpaceOnUse"
   x1="234.6552"
   y1="277.5047"
   x2="376.95151"
   y2="277.5047">
			<stop
   offset="0"
   style="stop-color:#A31FA9"
   id="stop183" />
			<stop
   offset="0.0668"
   style="stop-color:#8B17A0"
   id="stop184" />
			<stop
   offset="0.1494"
   style="stop-color:#740F98"
   id="stop185" />
			<stop
   offset="0.2393"
   style="stop-color:#640A92"
   id="stop186" />
			<stop
   offset="0.3408"
   style="stop-color:#5B078F"
   id="stop187" />
			<stop
   offset="0.4785"
   style="stop-color:#58068E"
   id="stop188" />
			<stop
   offset="0.6264"
   style="stop-color:#4D22A3"
   id="stop189" />
			<stop
   offset="0.9436"
   style="stop-color:#3168DA"
   id="stop190" />
			<stop
   offset="1"
   style="stop-color:#2C75E4"
   id="stop191" />
		</linearGradient>
		<path
   style="fill:url(#SVGID_00000046337472772949267270000001812225939771823030_)"
   d="m 362.497,234.771 h -24.613 l -27.399,-15.819 c -3.529,-2.037 -9.692,-1.782 -13.767,0.571 l -26.41,15.248 h -24.601 v 68.944 h 0.008 c -0.1,1.379 0.669,2.709 2.364,3.688 l 49.629,28.654 c 3.529,2.037 9.692,1.782 13.767,-0.571 l 47.651,-27.511 c 2.117,-1.222 3.244,-2.769 3.352,-4.26 h 0.018 v -68.944 z"
   id="path191" />
		<path
   style="fill:#d4088c"
   d="m 251.94,234.771 h -6.233 v 68.943 h 0.008 c -0.071,0.978 0.305,1.93 1.129,2.751 -0.527,-0.702 -0.766,-1.476 -0.708,-2.267 h -0.008 v -68.943 h 6.298 c -0.154,-0.167 -0.318,-0.329 -0.486,-0.484 z"
   id="path192" />
		<path
   style="fill:#6de0f6"
   d="m 354.619,234.771 c -0.045,0.138 -0.092,0.276 -0.141,0.415 h 7.577 v 68.943 h -0.018 c -0.067,0.924 -0.528,1.869 -1.371,2.746 1.121,-0.989 1.735,-2.088 1.813,-3.16 h 0.018 v -68.943 h -7.878 z"
   id="path193" />
		<polygon
   style="opacity:0.5;fill:#d4088c"
   points="254.154,310.909 263.093,316.069 263.093,236.103 254.154,236.103 "
   id="polygon193" />
		<polygon
   style="opacity:0.3;fill:#d4088c"
   points="266.139,317.828 268.581,319.238 268.581,241.474 266.139,241.474 "
   id="polygon194" />
		<polygon
   style="opacity:0.15;fill:#d4088c"
   points="270.51,320.352 272.952,321.762 272.952,242.413 270.51,242.413 "
   id="polygon195" />
		
			<linearGradient
   id="SVGID_00000117644025093120509150000013312781426943236232_"
   gradientUnits="userSpaceOnUse"
   x1="591.43018"
   y1="792.43512"
   x2="658.5517"
   y2="734.30621"
   gradientTransform="matrix(0.866,0.5,-1,0.5774,525.0016,-518.4943)">
			<stop
   offset="0"
   style="stop-color:#267FE5"
   id="stop195" />
			<stop
   offset="0.1699"
   style="stop-color:#2C87E7"
   id="stop196" />
			<stop
   offset="0.441"
   style="stop-color:#3D9FEB"
   id="stop197" />
			<stop
   offset="0.7773"
   style="stop-color:#59C4F2"
   id="stop198" />
			<stop
   offset="1"
   style="stop-color:#6EE1F8"
   id="stop199" />
		</linearGradient>
		<path
   style="fill:url(#SVGID_00000117644025093120509150000013312781426943236232_)"
   d="M 297.709,267.113 248.08,238.46 c -3.529,-2.037 -3.086,-5.596 0.988,-7.948 L 296.719,203 c 4.075,-2.352 10.238,-2.608 13.767,-0.571 l 49.629,28.653 c 3.529,2.037 3.086,5.596 -0.988,7.948 l -47.651,27.511 c -4.075,2.354 -10.238,2.61 -13.767,0.572 z"
   id="path199" />
		<path
   style="fill:#6de0f6"
   d="m 298.255,267.113 -49.629,-28.654 c -3.529,-2.037 -3.086,-5.596 0.988,-7.948 L 297.265,203 c 2.018,-1.165 4.549,-1.813 7.019,-1.925 -2.64,0.034 -5.396,0.673 -7.565,1.925 l -47.651,27.511 c -4.075,2.352 -4.517,5.911 -0.988,7.948 l 49.629,28.654 c 1.781,1.028 4.232,1.469 6.748,1.354 -2.32,0.031 -4.551,-0.401 -6.202,-1.354 z"
   id="path200" />
		<path
   style="fill:#6de0f6"
   d="m 360.115,231.083 -49.629,-28.654 c -1.783,-1.03 -4.24,-1.469 -6.759,-1.353 2.292,-0.019 4.492,0.411 6.124,1.353 l 49.629,28.654 c 3.529,2.037 3.086,5.596 -0.988,7.948 l -47.651,27.511 c -2.015,1.163 -4.542,1.81 -7.007,1.924 2.664,-0.022 5.453,-0.659 7.643,-1.924 l 47.651,-27.511 c 4.073,-2.352 4.516,-5.911 0.987,-7.948 z"
   id="path201" />
		<path
   style="fill:#6de0f6"
   d="m 303.792,260.04 c -1.701,0 -3.324,-0.343 -4.536,-1.042 l -36.949,-21.332 c -1.199,-0.692 -1.859,-1.658 -1.859,-2.718 0,-1.269 0.946,-2.544 2.595,-3.496 l 35.476,-20.482 c 3.076,-1.777 7.75,-1.966 10.42,-0.425 l 36.949,21.332 c 1.199,0.692 1.859,1.658 1.859,2.718 0,1.269 -0.946,2.544 -2.595,3.496 l -35.476,20.482 c -1.68,0.97 -3.837,1.467 -5.884,1.467 z m 0.611,-50.201 c -1.985,0 -4.08,0.483 -5.714,1.427 l -35.476,20.482 c -1.54,0.889 -2.424,2.056 -2.424,3.199 0,0.934 0.599,1.794 1.688,2.422 l 36.949,21.332 c 2.576,1.487 7.097,1.297 10.079,-0.425 l 35.476,-20.482 c 1.54,-0.889 2.424,-2.056 2.424,-3.199 0,-0.934 -0.6,-1.794 -1.688,-2.422 l -36.949,-21.332 c -1.165,-0.672 -2.727,-1.002 -4.365,-1.002 z"
   id="path202" />
		<g
   id="g221">
			<g
   id="g204">
				<path
   style="fill:#6de0f6"
   d="m 312.892,272.006 41.982,-24.283 c 0.384,-0.222 0.695,-0.816 0.695,-1.329 v -0.689 c 0,-0.512 -0.311,-0.747 -0.695,-0.526 l -41.982,24.283 c -0.384,0.222 -0.695,0.817 -0.695,1.329 v 0.689 c -10e-4,0.513 0.311,0.748 0.695,0.526 z"
   id="path203" />
				<path
   style="fill:#267fe5"
   d="m 353.954,247.199 c 0.384,-0.222 0.695,-0.817 0.695,-1.329 v -0.56 l 0.224,-0.129 c 0.384,-0.222 0.695,0.014 0.695,0.526 v 0.689 c 0,0.512 -0.311,1.107 -0.695,1.329 l -41.982,24.283 c -0.384,0.222 -0.695,-0.014 -0.695,-0.526 v -0.129 z"
   id="path204" />
			</g>
			<g
   id="g206">
				<path
   style="fill:#6de0f6"
   d="m 312.892,279.395 41.982,-24.283 c 0.384,-0.222 0.695,-0.817 0.695,-1.329 v -0.689 c 0,-0.512 -0.311,-0.747 -0.695,-0.526 l -41.982,24.283 c -0.384,0.222 -0.695,0.817 -0.695,1.329 v 0.689 c -10e-4,0.512 0.311,0.747 0.695,0.526 z"
   id="path205" />
				<path
   style="fill:#267fe5"
   d="m 353.954,254.587 c 0.384,-0.222 0.695,-0.817 0.695,-1.329 v -0.56 l 0.224,-0.129 c 0.384,-0.222 0.695,0.014 0.695,0.526 v 0.689 c 0,0.512 -0.311,1.107 -0.695,1.329 l -41.982,24.283 c -0.384,0.222 -0.695,-0.014 -0.695,-0.526 v -0.129 z"
   id="path206" />
			</g>
			<g
   id="g208">
				<path
   style="fill:#6de0f6"
   d="M 312.892,286.783 354.874,262.5 c 0.384,-0.222 0.695,-0.816 0.695,-1.329 v -0.689 c 0,-0.512 -0.311,-0.747 -0.695,-0.526 l -41.982,24.283 c -0.384,0.222 -0.695,0.817 -0.695,1.329 v 0.689 c -10e-4,0.513 0.311,0.748 0.695,0.526 z"
   id="path207" />
				<path
   style="fill:#267fe5"
   d="m 353.954,261.975 c 0.384,-0.222 0.695,-0.817 0.695,-1.329 v -0.56 l 0.224,-0.129 c 0.384,-0.222 0.695,0.014 0.695,0.526 v 0.689 c 0,0.512 -0.311,1.107 -0.695,1.329 l -41.982,24.283 c -0.384,0.222 -0.695,-0.014 -0.695,-0.526 v -0.129 z"
   id="path208" />
			</g>
			<g
   id="g210">
				<path
   style="fill:#6de0f6"
   d="m 312.892,294.172 41.982,-24.283 c 0.384,-0.222 0.695,-0.816 0.695,-1.329 v -0.689 c 0,-0.512 -0.311,-0.747 -0.695,-0.526 l -41.982,24.283 c -0.384,0.222 -0.695,0.817 -0.695,1.329 v 0.689 c -10e-4,0.512 0.311,0.747 0.695,0.526 z"
   id="path209" />
				<path
   style="fill:#267fe5"
   d="m 353.954,269.364 c 0.384,-0.222 0.695,-0.817 0.695,-1.329 v -0.56 l 0.224,-0.129 c 0.384,-0.222 0.695,0.014 0.695,0.526 v 0.689 c 0,0.512 -0.311,1.107 -0.695,1.329 l -41.982,24.283 c -0.384,0.222 -0.695,-0.014 -0.695,-0.526 v -0.129 z"
   id="path210" />
			</g>
			<g
   id="g212">
				<path
   style="fill:#6de0f6"
   d="m 312.892,301.56 41.982,-24.283 c 0.384,-0.222 0.695,-0.817 0.695,-1.329 v -0.689 c 0,-0.512 -0.311,-0.747 -0.695,-0.526 l -41.982,24.283 c -0.384,0.222 -0.695,0.817 -0.695,1.329 v 0.689 c -10e-4,0.512 0.311,0.748 0.695,0.526 z"
   id="path211" />
				<path
   style="fill:#267fe5"
   d="m 353.954,276.752 c 0.384,-0.222 0.695,-0.817 0.695,-1.329 v -0.56 l 0.224,-0.129 c 0.384,-0.222 0.695,0.014 0.695,0.526 v 0.689 c 0,0.512 -0.311,1.107 -0.695,1.329 l -41.982,24.283 c -0.384,0.222 -0.695,-0.014 -0.695,-0.526 v -0.129 z"
   id="path212" />
			</g>
			<g
   id="g214">
				<path
   style="fill:#6de0f6"
   d="m 312.892,308.948 41.982,-24.283 c 0.384,-0.222 0.695,-0.816 0.695,-1.329 v -0.689 c 0,-0.512 -0.311,-0.747 -0.695,-0.526 l -41.982,24.283 c -0.384,0.222 -0.695,0.817 -0.695,1.329 v 0.689 c -10e-4,0.513 0.311,0.748 0.695,0.526 z"
   id="path213" />
				<path
   style="fill:#267fe5"
   d="m 353.954,284.141 c 0.384,-0.222 0.695,-0.817 0.695,-1.329 v -0.56 l 0.224,-0.129 c 0.384,-0.222 0.695,0.014 0.695,0.526 v 0.689 c 0,0.512 -0.311,1.107 -0.695,1.329 l -41.982,24.283 c -0.384,0.222 -0.695,-0.014 -0.695,-0.526 v -0.129 z"
   id="path214" />
			</g>
			<g
   id="g216">
				<path
   style="fill:#6de0f6"
   d="m 312.892,316.337 41.982,-24.283 c 0.384,-0.222 0.695,-0.816 0.695,-1.329 v -0.689 c 0,-0.512 -0.311,-0.747 -0.695,-0.526 l -41.982,24.283 c -0.384,0.222 -0.695,0.817 -0.695,1.329 v 0.689 c -10e-4,0.512 0.311,0.747 0.695,0.526 z"
   id="path215" />
				<path
   style="fill:#267fe5"
   d="m 353.954,291.529 c 0.384,-0.222 0.695,-0.817 0.695,-1.329 v -0.56 l 0.224,-0.129 c 0.384,-0.222 0.695,0.014 0.695,0.526 v 0.689 c 0,0.512 -0.311,1.107 -0.695,1.329 l -41.982,24.283 c -0.384,0.222 -0.695,-0.014 -0.695,-0.526 v -0.129 z"
   id="path216" />
			</g>
			<g
   id="g218">
				<path
   style="fill:#6de0f6"
   d="m 312.892,323.725 41.982,-24.283 c 0.384,-0.222 0.695,-0.816 0.695,-1.329 v -0.689 c 0,-0.512 -0.311,-0.747 -0.695,-0.526 l -41.982,24.283 c -0.384,0.222 -0.695,0.817 -0.695,1.329 v 0.689 c -10e-4,0.512 0.311,0.748 0.695,0.526 z"
   id="path217" />
				<path
   style="fill:#267fe5"
   d="m 353.954,298.917 c 0.384,-0.222 0.695,-0.817 0.695,-1.329 v -0.56 l 0.224,-0.129 c 0.384,-0.222 0.695,0.014 0.695,0.526 v 0.689 c 0,0.512 -0.311,1.107 -0.695,1.329 l -41.982,24.283 c -0.384,0.222 -0.695,-0.014 -0.695,-0.526 v -0.129 z"
   id="path218" />
			</g>
			<g
   id="g220">
				<path
   style="fill:#6de0f6"
   d="m 312.892,331.113 41.982,-24.283 c 0.384,-0.222 0.695,-0.816 0.695,-1.329 v -0.689 c 0,-0.512 -0.311,-0.747 -0.695,-0.526 l -41.982,24.283 c -0.384,0.222 -0.695,0.817 -0.695,1.329 v 0.689 c -10e-4,0.513 0.311,0.748 0.695,0.526 z"
   id="path219" />
				<path
   style="fill:#267fe5"
   d="m 353.954,306.306 c 0.384,-0.222 0.695,-0.817 0.695,-1.329 v -0.56 l 0.224,-0.129 c 0.384,-0.222 0.695,0.014 0.695,0.526 v 0.689 c 0,0.512 -0.311,1.107 -0.695,1.329 l -41.982,24.283 c -0.384,0.222 -0.695,-0.014 -0.695,-0.526 v -0.129 z"
   id="path220" />
			</g>
		</g>
		<g
   id="g231">
			<g
   id="g222">
				<circle
   style="fill:#6de0f6"
   cx="304.09698"
   cy="273.20801"
   r="1.127"
   id="circle221" />
				<path
   style="fill:#267fe5"
   d="m 304.097,273.912 c -0.55,0 -1.007,-0.395 -1.106,-0.915 -0.013,0.069 -0.021,0.139 -0.021,0.211 0,0.622 0.505,1.127 1.127,1.127 0.622,0 1.127,-0.504 1.127,-1.127 0,-0.072 -0.008,-0.143 -0.021,-0.211 -0.099,0.521 -0.556,0.915 -1.106,0.915 z"
   id="path221" />
			</g>
			<g
   id="g223">
				<circle
   style="fill:#6de0f6"
   cx="304.09698"
   cy="280.59601"
   r="1.127"
   id="circle222" />
				<path
   style="fill:#267fe5"
   d="m 304.097,281.301 c -0.55,0 -1.007,-0.395 -1.106,-0.915 -0.013,0.069 -0.021,0.139 -0.021,0.211 0,0.622 0.505,1.127 1.127,1.127 0.622,0 1.127,-0.504 1.127,-1.127 0,-0.072 -0.008,-0.143 -0.021,-0.211 -0.099,0.52 -0.556,0.915 -1.106,0.915 z"
   id="path222" />
			</g>
			<g
   id="g224">
				<circle
   style="fill:#6de0f6"
   cx="304.09698"
   cy="287.98499"
   r="1.127"
   id="circle223" />
				<path
   style="fill:#267fe5"
   d="m 304.097,288.689 c -0.55,0 -1.007,-0.395 -1.106,-0.915 -0.013,0.069 -0.021,0.139 -0.021,0.211 0,0.622 0.505,1.127 1.127,1.127 0.622,0 1.127,-0.504 1.127,-1.127 0,-0.072 -0.008,-0.143 -0.021,-0.211 -0.099,0.521 -0.556,0.915 -1.106,0.915 z"
   id="path223" />
			</g>
			<g
   id="g225">
				<circle
   style="fill:#6de0f6"
   cx="304.09698"
   cy="295.37299"
   r="1.127"
   id="circle224" />
				<path
   style="fill:#267fe5"
   d="m 304.097,296.078 c -0.55,0 -1.007,-0.395 -1.106,-0.916 -0.013,0.069 -0.021,0.139 -0.021,0.211 0,0.622 0.505,1.127 1.127,1.127 0.622,0 1.127,-0.504 1.127,-1.127 0,-0.072 -0.008,-0.143 -0.021,-0.211 -0.099,0.521 -0.556,0.916 -1.106,0.916 z"
   id="path224" />
			</g>
			<g
   id="g226">
				<circle
   style="fill:#6de0f6"
   cx="304.09698"
   cy="302.76199"
   r="1.127"
   id="circle225" />
				<path
   style="fill:#267fe5"
   d="m 304.097,303.466 c -0.55,0 -1.007,-0.395 -1.106,-0.915 -0.013,0.068 -0.021,0.139 -0.021,0.211 0,0.622 0.505,1.127 1.127,1.127 0.622,0 1.127,-0.504 1.127,-1.127 0,-0.072 -0.008,-0.143 -0.021,-0.211 -0.099,0.52 -0.556,0.915 -1.106,0.915 z"
   id="path225" />
			</g>
			<g
   id="g227">
				<circle
   style="fill:#6de0f6"
   cx="304.09698"
   cy="310.14999"
   r="1.127"
   id="circle226" />
				<path
   style="fill:#267fe5"
   d="m 304.097,310.854 c -0.55,0 -1.007,-0.395 -1.106,-0.915 -0.013,0.068 -0.021,0.139 -0.021,0.211 0,0.622 0.505,1.127 1.127,1.127 0.622,0 1.127,-0.504 1.127,-1.127 0,-0.072 -0.008,-0.143 -0.021,-0.211 -0.099,0.521 -0.556,0.915 -1.106,0.915 z"
   id="path226" />
			</g>
			<g
   id="g228">
				<circle
   style="fill:#6de0f6"
   cx="304.09698"
   cy="317.53799"
   r="1.127"
   id="circle227" />
				<path
   style="fill:#267fe5"
   d="m 304.097,318.243 c -0.55,0 -1.007,-0.395 -1.106,-0.915 -0.013,0.068 -0.021,0.139 -0.021,0.211 0,0.622 0.505,1.127 1.127,1.127 0.622,0 1.127,-0.504 1.127,-1.127 0,-0.072 -0.008,-0.143 -0.021,-0.211 -0.099,0.52 -0.556,0.915 -1.106,0.915 z"
   id="path227" />
			</g>
			<g
   id="g229">
				<circle
   style="fill:#6de0f6"
   cx="304.09698"
   cy="324.927"
   r="1.127"
   id="circle228" />
				<path
   style="fill:#267fe5"
   d="m 304.097,325.631 c -0.55,0 -1.007,-0.395 -1.106,-0.915 -0.013,0.068 -0.021,0.139 -0.021,0.211 0,0.622 0.505,1.127 1.127,1.127 0.622,0 1.127,-0.504 1.127,-1.127 0,-0.072 -0.008,-0.143 -0.021,-0.211 -0.099,0.521 -0.556,0.915 -1.106,0.915 z"
   id="path228" />
			</g>
			<g
   id="g230">
				<circle
   style="fill:#6de0f6"
   cx="304.09698"
   cy="332.315"
   r="1.127"
   id="circle229" />
				<path
   style="fill:#267fe5"
   d="m 304.097,333.02 c -0.55,0 -1.007,-0.395 -1.106,-0.915 -0.013,0.068 -0.021,0.139 -0.021,0.211 0,0.622 0.505,1.127 1.127,1.127 0.622,0 1.127,-0.504 1.127,-1.127 0,-0.072 -0.008,-0.143 -0.021,-0.211 -0.099,0.52 -0.556,0.915 -1.106,0.915 z"
   id="path229" />
			</g>
		</g>
	</g>
	<g
   id="g234">
		<g
   id="g233">
			<path
   style="fill:#161242"
   d="m 287.987,321.509 c -0.225,0 -0.467,-0.071 -0.711,-0.212 l -1.68,-0.97 c -0.914,-0.527 -1.658,-1.941 -1.658,-3.152 v -45.346 c 0,-0.672 0.229,-1.189 0.629,-1.42 0.341,-0.197 0.767,-0.166 1.2,0.083 l 1.681,0.97 c 0.914,0.528 1.658,1.942 1.658,3.152 v 45.346 c 0,0.672 -0.229,1.189 -0.629,1.42 -0.15,0.086 -0.315,0.129 -0.49,0.129 z m -2.931,-50.885 c -0.116,0 -0.224,0.027 -0.319,0.082 -0.291,0.168 -0.458,0.578 -0.458,1.123 v 45.346 c 0,1.101 0.667,2.382 1.486,2.855 l 1.681,0.97 c 0.322,0.186 0.626,0.215 0.857,0.083 0.291,-0.168 0.458,-0.577 0.458,-1.123 v -45.346 c 0,-1.101 -0.667,-2.382 -1.486,-2.855 l -1.68,-0.97 c -0.19,-0.11 -0.373,-0.165 -0.539,-0.165 z"
   id="path232" />
		</g>
	</g>
</g>
<g
   id="g243"
   transform="translate(-42.54715,-49.510309)">
	<path
   style="fill:#6de0f6"
   d="m 220.814,326.085 c -0.602,1.042 -1.935,1.398 -2.977,0.796 -1.042,-0.602 -1.398,-1.935 -0.796,-2.977 0.602,-1.042 1.935,-1.398 2.977,-0.796 1.042,0.602 1.399,1.935 0.796,2.977 z"
   id="path235" />
	<path
   style="opacity:0.8813;fill:#6de0f6"
   d="m 215.516,323.023 c -0.602,1.042 -1.935,1.398 -2.977,0.796 -1.042,-0.602 -1.398,-1.935 -0.796,-2.977 0.602,-1.042 1.935,-1.398 2.977,-0.796 1.041,0.602 1.398,1.935 0.796,2.977 z"
   id="path236" />
	<path
   style="opacity:0.7625;fill:#6de0f6"
   d="m 210.217,319.961 c -0.602,1.042 -1.935,1.398 -2.977,0.796 -1.042,-0.602 -1.398,-1.935 -0.796,-2.977 0.602,-1.042 1.935,-1.398 2.977,-0.796 1.042,0.602 1.398,1.935 0.796,2.977 z"
   id="path237" />
	<path
   style="opacity:0.6438;fill:#6de0f6"
   d="m 204.919,316.899 c -0.602,1.042 -1.935,1.398 -2.977,0.796 -1.042,-0.602 -1.398,-1.935 -0.796,-2.977 0.602,-1.042 1.935,-1.398 2.977,-0.796 1.041,0.602 1.398,1.935 0.796,2.977 z"
   id="path238" />
	<path
   style="opacity:0.525;fill:#6de0f6"
   d="m 199.62,313.837 c -0.602,1.042 -1.935,1.398 -2.977,0.796 -1.042,-0.602 -1.399,-1.935 -0.796,-2.977 0.602,-1.042 1.935,-1.398 2.977,-0.796 1.041,0.602 1.398,1.935 0.796,2.977 z"
   id="path239" />
	<path
   style="opacity:0.4063;fill:#6de0f6"
   d="m 194.321,310.775 c -0.602,1.042 -1.935,1.398 -2.977,0.796 -1.042,-0.602 -1.398,-1.935 -0.796,-2.977 0.602,-1.042 1.935,-1.398 2.977,-0.796 1.042,0.602 1.398,1.935 0.796,2.977 z"
   id="path240" />
	<path
   style="opacity:0.2875;fill:#6de0f6"
   d="m 189.022,307.713 c -0.602,1.042 -1.935,1.398 -2.977,0.796 -1.042,-0.602 -1.398,-1.935 -0.796,-2.977 0.602,-1.042 1.935,-1.398 2.977,-0.796 1.042,0.602 1.399,1.935 0.796,2.977 z"
   id="path241" />
	<path
   style="opacity:0.1688;fill:#6de0f6"
   d="m 183.724,304.651 c -0.602,1.042 -1.935,1.398 -2.977,0.796 -1.042,-0.602 -1.398,-1.935 -0.796,-2.977 0.602,-1.042 1.935,-1.398 2.977,-0.796 1.041,0.602 1.398,1.935 0.796,2.977 z"
   id="path242" />
	<path
   style="opacity:0.05;fill:#6de0f6"
   d="m 178.425,301.589 c -0.602,1.042 -1.935,1.398 -2.977,0.796 -1.042,-0.602 -1.398,-1.935 -0.796,-2.977 0.602,-1.042 1.935,-1.398 2.977,-0.796 1.042,0.602 1.398,1.935 0.796,2.977 z"
   id="path243" />
</g>
<radialGradient
   id="SVGID_00000034793565344896436030000011371116006661580447_"
   cx="153.57001"
   cy="1198.4692"
   r="9.1218004"
   gradientTransform="rotate(180,164.98232,736.9763)"
   gradientUnits="userSpaceOnUse">
	<stop
   offset="0"
   style="stop-color:#25BFEC"
   id="stop243" />
	<stop
   offset="0.0554"
   style="stop-color:#21A6D3"
   id="stop244" />
	<stop
   offset="0.1578"
   style="stop-color:#1C7EAA"
   id="stop245" />
	<stop
   offset="0.2665"
   style="stop-color:#175C87"
   id="stop246" />
	<stop
   offset="0.3808"
   style="stop-color:#13406A"
   id="stop247" />
	<stop
   offset="0.5026"
   style="stop-color:#102A54"
   id="stop248" />
	<stop
   offset="0.6353"
   style="stop-color:#0E1B44"
   id="stop249" />
	<stop
   offset="0.787"
   style="stop-color:#0C123B"
   id="stop250" />
	<stop
   offset="1"
   style="stop-color:#0C0F38"
   id="stop251" />
</radialGradient>
<path
   style="fill:url(#SVGID_00000034793565344896436030000011371116006661580447_)"
   d="m 168.49785,270.91969 c 2.52,-4.361 8.099,-5.853 12.46,-3.333 4.361,2.52 5.854,8.099 3.333,12.46 -2.52,4.361 -8.099,5.854 -12.46,3.333 -4.361,-2.52 -5.853,-8.098 -3.333,-12.46 z"
   id="path251" />
<g
   id="g260"
   transform="translate(-42.54715,-49.510309)">
	<path
   style="fill:#6de0f6"
   d="m 217.055,323.904 c 0.602,-1.042 1.935,-1.398 2.977,-0.796 1.042,0.602 1.398,1.935 0.796,2.977 -0.602,1.042 -1.935,1.398 -2.977,0.796 -1.041,-0.603 -1.398,-1.936 -0.796,-2.977 z"
   id="path252" />
	<path
   style="opacity:0.8813;fill:#6de0f6"
   d="m 222.354,326.965 c 0.602,-1.042 1.935,-1.398 2.977,-0.796 1.042,0.602 1.398,1.935 0.796,2.977 -0.602,1.042 -1.935,1.398 -2.977,0.796 -1.042,-0.602 -1.398,-1.935 -0.796,-2.977 z"
   id="path253" />
	<path
   style="opacity:0.7625;fill:#6de0f6"
   d="m 227.652,330.027 c 0.602,-1.042 1.935,-1.398 2.977,-0.796 1.042,0.602 1.398,1.935 0.796,2.977 -0.602,1.042 -1.935,1.398 -2.977,0.796 -1.041,-0.602 -1.398,-1.935 -0.796,-2.977 z"
   id="path254" />
	<path
   style="opacity:0.6438;fill:#6de0f6"
   d="m 232.951,333.089 c 0.602,-1.042 1.935,-1.398 2.977,-0.796 1.042,0.602 1.398,1.935 0.796,2.977 -0.602,1.042 -1.935,1.398 -2.977,0.796 -1.041,-0.602 -1.398,-1.935 -0.796,-2.977 z"
   id="path255" />
	<path
   style="opacity:0.525;fill:#6de0f6"
   d="m 238.25,336.151 c 0.602,-1.042 1.935,-1.398 2.977,-0.796 1.042,0.602 1.398,1.935 0.796,2.977 -0.602,1.042 -1.935,1.398 -2.977,0.796 -1.042,-0.602 -1.398,-1.935 -0.796,-2.977 z"
   id="path256" />
	<path
   style="opacity:0.4063;fill:#6de0f6"
   d="m 243.548,339.213 c 0.602,-1.042 1.935,-1.398 2.977,-0.796 1.042,0.602 1.398,1.935 0.796,2.977 -0.602,1.042 -1.935,1.399 -2.977,0.796 -1.041,-0.602 -1.398,-1.935 -0.796,-2.977 z"
   id="path257" />
	<path
   style="opacity:0.2875;fill:#6de0f6"
   d="m 248.847,342.275 c 0.602,-1.042 1.935,-1.398 2.977,-0.796 1.042,0.602 1.398,1.935 0.796,2.977 -0.602,1.042 -1.935,1.398 -2.977,0.796 -1.041,-0.602 -1.398,-1.935 -0.796,-2.977 z"
   id="path258" />
	<path
   style="opacity:0.1688;fill:#6de0f6"
   d="m 254.146,345.337 c 0.602,-1.042 1.935,-1.398 2.977,-0.796 1.042,0.602 1.398,1.935 0.796,2.977 -0.602,1.042 -1.935,1.398 -2.977,0.796 -1.042,-0.602 -1.398,-1.935 -0.796,-2.977 z"
   id="path259" />
	<path
   style="opacity:0.05;fill:#6de0f6"
   d="m 259.444,348.399 c 0.602,-1.042 1.935,-1.398 2.977,-0.796 1.042,0.602 1.398,1.935 0.796,2.977 -0.602,1.042 -1.935,1.398 -2.977,0.796 -1.041,-0.602 -1.398,-1.935 -0.796,-2.977 z"
   id="path260" />
</g>
<g
   id="g269"
   transform="translate(-42.54715,-49.510309)">
	<path
   style="fill:#6de0f6"
   d="m 387.486,326.017 c 0.602,1.042 1.935,1.398 2.977,0.796 1.042,-0.602 1.398,-1.935 0.796,-2.977 -0.602,-1.042 -1.935,-1.398 -2.977,-0.796 -1.042,0.603 -1.399,1.935 -0.796,2.977 z"
   id="path261" />
	<path
   style="opacity:0.8813;fill:#6de0f6"
   d="m 392.784,322.955 c 0.602,1.042 1.935,1.398 2.977,0.796 1.042,-0.602 1.398,-1.935 0.796,-2.977 -0.602,-1.042 -1.935,-1.398 -2.977,-0.796 -1.041,0.603 -1.398,1.936 -0.796,2.977 z"
   id="path262" />
	<path
   style="opacity:0.7625;fill:#6de0f6"
   d="m 398.083,319.893 c 0.602,1.042 1.935,1.398 2.977,0.796 1.042,-0.602 1.398,-1.935 0.796,-2.977 -0.602,-1.042 -1.935,-1.398 -2.977,-0.796 -1.042,0.603 -1.398,1.936 -0.796,2.977 z"
   id="path263" />
	<path
   style="opacity:0.6438;fill:#6de0f6"
   d="m 403.382,316.832 c 0.602,1.042 1.935,1.398 2.977,0.796 1.042,-0.602 1.398,-1.935 0.796,-2.977 -0.602,-1.042 -1.935,-1.398 -2.977,-0.796 -1.042,0.602 -1.399,1.935 -0.796,2.977 z"
   id="path264" />
	<path
   style="opacity:0.525;fill:#6de0f6"
   d="m 408.68,313.77 c 0.602,1.042 1.935,1.398 2.977,0.796 1.042,-0.602 1.398,-1.935 0.796,-2.977 -0.602,-1.042 -1.935,-1.398 -2.977,-0.796 -1.041,0.602 -1.398,1.935 -0.796,2.977 z"
   id="path265" />
	<path
   style="opacity:0.4063;fill:#6de0f6"
   d="m 413.979,310.708 c 0.602,1.042 1.935,1.398 2.977,0.796 1.042,-0.602 1.398,-1.935 0.796,-2.977 -0.602,-1.042 -1.935,-1.398 -2.977,-0.796 -1.042,0.602 -1.398,1.935 -0.796,2.977 z"
   id="path266" />
	<path
   style="opacity:0.2875;fill:#6de0f6"
   d="m 419.277,307.646 c 0.602,1.042 1.935,1.398 2.977,0.796 1.042,-0.602 1.398,-1.935 0.796,-2.977 -0.602,-1.042 -1.935,-1.398 -2.977,-0.796 -1.041,0.602 -1.398,1.935 -0.796,2.977 z"
   id="path267" />
	<path
   style="opacity:0.1688;fill:#6de0f6"
   d="m 424.576,304.584 c 0.602,1.042 1.935,1.398 2.977,0.796 1.042,-0.602 1.398,-1.935 0.796,-2.977 -0.602,-1.042 -1.935,-1.398 -2.977,-0.796 -1.041,0.602 -1.398,1.935 -0.796,2.977 z"
   id="path268" />
	<path
   style="opacity:0.05;fill:#6de0f6"
   d="m 429.875,301.522 c 0.602,1.042 1.935,1.398 2.977,0.796 1.042,-0.602 1.398,-1.935 0.796,-2.977 -0.602,-1.042 -1.935,-1.398 -2.977,-0.796 -1.042,0.602 -1.398,1.935 -0.796,2.977 z"
   id="path269" />
</g>
<g
   id="g278"
   transform="translate(-42.54715,-49.510309)">
	<path
   style="fill:#6de0f6"
   d="m 391.245,323.836 c -0.602,-1.042 -1.935,-1.398 -2.977,-0.796 -1.042,0.602 -1.398,1.935 -0.796,2.977 0.602,1.042 1.935,1.398 2.977,0.796 1.041,-0.602 1.398,-1.935 0.796,-2.977 z"
   id="path270" />
	<path
   style="opacity:0.8813;fill:#6de0f6"
   d="m 385.946,326.898 c -0.602,-1.042 -1.935,-1.398 -2.977,-0.796 -1.042,0.602 -1.398,1.935 -0.796,2.977 0.602,1.042 1.935,1.398 2.977,0.796 1.042,-0.602 1.398,-1.935 0.796,-2.977 z"
   id="path271" />
	<path
   style="opacity:0.7625;fill:#6de0f6"
   d="m 380.647,329.96 c -0.602,-1.042 -1.935,-1.398 -2.977,-0.796 -1.042,0.602 -1.398,1.935 -0.796,2.977 0.602,1.042 1.935,1.398 2.977,0.796 1.042,-0.602 1.399,-1.935 0.796,-2.977 z"
   id="path272" />
	<path
   style="opacity:0.6438;fill:#6de0f6"
   d="m 375.349,333.022 c -0.602,-1.042 -1.935,-1.398 -2.977,-0.796 -1.042,0.602 -1.398,1.935 -0.796,2.977 0.602,1.042 1.935,1.398 2.977,0.796 1.042,-0.602 1.398,-1.935 0.796,-2.977 z"
   id="path273" />
	<path
   style="opacity:0.525;fill:#6de0f6"
   d="m 370.05,336.084 c -0.602,-1.042 -1.935,-1.398 -2.977,-0.796 -1.042,0.602 -1.398,1.935 -0.796,2.977 0.602,1.042 1.935,1.398 2.977,0.796 1.042,-0.602 1.398,-1.935 0.796,-2.977 z"
   id="path274" />
	<path
   style="opacity:0.4063;fill:#6de0f6"
   d="m 364.752,339.146 c -0.602,-1.042 -1.935,-1.398 -2.977,-0.796 -1.042,0.602 -1.398,1.935 -0.796,2.977 0.602,1.042 1.935,1.399 2.977,0.796 1.042,-0.603 1.398,-1.935 0.796,-2.977 z"
   id="path275" />
	<path
   style="opacity:0.2875;fill:#6de0f6"
   d="m 359.453,342.208 c -0.602,-1.042 -1.935,-1.398 -2.977,-0.796 -1.042,0.602 -1.398,1.935 -0.796,2.977 0.602,1.042 1.935,1.398 2.977,0.796 1.041,-0.602 1.398,-1.935 0.796,-2.977 z"
   id="path276" />
	<path
   style="opacity:0.1688;fill:#6de0f6"
   d="m 354.154,345.27 c -0.602,-1.042 -1.935,-1.398 -2.977,-0.796 -1.042,0.602 -1.398,1.935 -0.796,2.977 0.602,1.042 1.935,1.398 2.977,0.796 1.042,-0.602 1.398,-1.935 0.796,-2.977 z"
   id="path277" />
	<path
   style="opacity:0.05;fill:#6de0f6"
   d="m 348.856,348.332 c -0.602,-1.042 -1.935,-1.398 -2.977,-0.796 -1.042,0.602 -1.398,1.935 -0.796,2.977 0.602,1.042 1.935,1.398 2.977,0.796 1.041,-0.602 1.398,-1.935 0.796,-2.977 z"
   id="path278" />
</g>
<radialGradient
   id="SVGID_00000070082736987648312020000005518749560691524239_"
   cx="-58.714401"
   cy="1243.0778"
   r="12.4527"
   gradientTransform="matrix(1,0,0,-1,320.26935,1473.9526)"
   gradientUnits="userSpaceOnUse">
	<stop
   offset="0"
   style="stop-color:#6EE8FC"
   id="stop278" />
	<stop
   offset="0.0344"
   style="stop-color:#6CDAF5"
   id="stop279" />
	<stop
   offset="0.1787"
   style="stop-color:#62A2D8"
   id="stop280" />
	<stop
   offset="0.324"
   style="stop-color:#5A72C0"
   id="stop281" />
	<stop
   offset="0.4671"
   style="stop-color:#544BAC"
   id="stop282" />
	<stop
   offset="0.6077"
   style="stop-color:#4F2D9D"
   id="stop283" />
	<stop
   offset="0.745"
   style="stop-color:#4B1792"
   id="stop284" />
	<stop
   offset="0.8775"
   style="stop-color:#490A8B"
   id="stop285" />
	<stop
   offset="1"
   style="stop-color:#480689"
   id="stop286" />
</radialGradient>
<path
   style="opacity:0.5;fill:url(#SVGID_00000070082736987648312020000005518749560691524239_)"
   d="m 272.33485,224.64569 c -3.441,-5.954 -11.056,-7.991 -17.01,-4.551 -5.954,3.44 -7.991,11.056 -4.551,17.01 3.44,5.954 11.056,7.991 17.01,4.551 5.954,-3.441 7.992,-11.057 4.551,-17.01 z"
   id="path286" />
<radialGradient
   id="SVGID_00000156547438287252536210000007217857993480042428_"
   cx="-58.714401"
   cy="1213.5242"
   r="4.6012998"
   gradientTransform="matrix(1,0,0,-1,320.26935,1473.9526)"
   gradientUnits="userSpaceOnUse">
	<stop
   offset="0"
   style="stop-color:#6EE8FC"
   id="stop287" />
	<stop
   offset="0.1183"
   style="stop-color:#6BD8F4"
   id="stop288" />
	<stop
   offset="0.249"
   style="stop-color:#62A1D8"
   id="stop289" />
	<stop
   offset="0.3802"
   style="stop-color:#5A72C0"
   id="stop290" />
	<stop
   offset="0.5114"
   style="stop-color:#544BAC"
   id="stop291" />
	<stop
   offset="0.6403"
   style="stop-color:#4F2D9D"
   id="stop292" />
	<stop
   offset="0.7662"
   style="stop-color:#4B1792"
   id="stop293" />
	<stop
   offset="0.8877"
   style="stop-color:#490A8B"
   id="stop294" />
	<stop
   offset="1"
   style="stop-color:#480689"
   id="stop295" />
</radialGradient>
<path
   style="fill:url(#SVGID_00000156547438287252536210000007217857993480042428_)"
   d="m 265.53785,258.12669 c -1.271,-2.2 -4.085,-2.953 -6.285,-1.681 -2.2,1.271 -2.953,4.085 -1.681,6.285 1.272,2.2 4.085,2.953 6.285,1.681 2.2,-1.271 2.953,-4.085 1.681,-6.285 z"
   id="path295" />
</svg>
